<?xml version="1.0" encoding="UTF-8"?>
<!-- Generated by Pixelmator Pro 3.7.1 -->
<svg width="651" height="657" viewBox="0 0 651 657" xmlns="http://www.w3.org/2000/svg">
    <linearGradient id="linearGradient1" x1="422.439294" y1="311.434855" x2="168.048544" y2="523.412095" gradientUnits="userSpaceOnUse">
        <stop offset="1e-05" stop-color="#fbd900" stop-opacity="1"/>
        <stop offset="1" stop-color="#f95400" stop-opacity="1"/>
    </linearGradient>
    <path id="Shape-copy-2" fill="url(#linearGradient1)" fill-rule="evenodd" stroke="none" d="M 73.82637 656.342163 C 71.112564 656.321411 67.44043 656.063538 65.666008 655.769043 C 63.891586 655.474609 60.814217 654.816162 58.827358 654.305847 C 56.840549 653.795471 53.690533 652.763428 51.827431 652.012268 C 49.964279 651.261169 46.864346 649.71936 44.938694 648.58606 C 43.013092 647.452759 40.024677 645.460876 38.297791 644.159668 C 36.570904 642.858398 33.549686 640.256165 31.583958 638.376953 C 29.618233 636.497681 26.629587 633.246948 24.942499 631.153076 C 23.255413 629.059204 20.703585 625.552612 19.27174 623.360718 C 17.839943 621.168823 15.499296 617.069641 14.070325 614.251465 C 12.641354 611.433289 10.521757 606.722473 9.360075 603.782898 C 8.198393 600.843384 6.55458 595.985046 5.707168 592.986694 C 4.859802 589.988281 3.667633 585.134399 3.05795 582.200317 C 2.448268 579.266235 1.689118 574.81604 1.370956 572.311035 C 1.052794 569.805969 0.614957 565.459167 0.39803 562.651489 C 0.181058 559.84375 0.004533 555.14679 0.005737 552.213806 C 0.006896 549.280762 0.266957 543.89209 0.583636 540.238892 C 0.900316 536.585693 1.587234 530.949341 2.110137 527.713684 C 2.632993 524.478027 3.669487 519.097839 4.413393 515.757813 C 5.1573 512.417725 6.52326 507.037598 7.448927 503.801941 C 8.374547 500.566254 10.053712 495.186096 11.180367 491.846039 C 12.307068 488.505981 14.328394 482.869629 15.6723 479.320831 C 17.016159 475.772034 19.748127 468.940125 21.743368 464.138763 C 23.738562 459.337433 26.853832 451.907715 28.666203 447.628265 C 30.478525 443.348816 33.568729 435.938202 35.533253 431.160217 C 37.497776 426.382233 40.452183 418.867096 42.098545 414.45993 C 43.744904 410.052765 46.290802 402.77475 47.75605 398.28653 C 49.221348 393.79834 51.623985 386.027039 53.095257 381.016937 C 54.566578 376.006866 57.493046 365.929749 59.598602 358.623383 C 61.704159 351.317017 64.798439 340.727509 66.474777 335.091187 C 68.151115 329.454834 70.979408 320.487946 72.759857 315.164703 C 74.540344 309.841492 77.107742 302.582581 78.465225 299.033752 C 79.822708 295.484955 81.972328 290.104797 83.242195 287.077881 C 84.512016 284.050964 87.726112 277.219025 90.384644 271.895813 C 93.043121 266.572601 96.617729 259.82605 98.328171 256.903534 C 100.038559 253.980988 103.362885 248.686218 105.715485 245.137421 C 108.06813 241.588623 111.488266 236.635468 113.315781 234.130432 C 115.143303 231.625397 118.214836 227.611603 120.141365 225.210968 C 122.067894 222.810303 125.67202 218.54187 128.150497 215.725555 C 130.629028 212.909241 135.989136 207.272919 140.061859 203.200348 C 144.134628 199.127808 153.613922 190.057648 161.126984 183.044495 C 168.640076 176.031372 179.866135 165.356445 186.073837 159.32251 C 192.28154 153.288574 205.860016 140.038513 216.248199 129.87793 C 226.636444 119.717285 239.331131 107.163635 244.45874 101.980835 C 249.586304 96.798096 255.937439 90.081055 258.572388 87.054138 C 261.207397 84.027222 267.147003 76.853699 271.771637 71.112976 C 276.396271 65.372253 282.769562 57.524963 285.93454 53.6745 C 289.099518 49.824097 293.824036 44.462769 296.433472 41.760498 C 299.042877 39.058228 302.885834 35.361633 304.973389 33.545837 C 307.060913 31.730103 310.595673 28.893127 312.8284 27.241394 C 315.061188 25.589722 319.15448 22.798584 321.924683 21.03894 C 324.694855 19.279297 329.273041 16.638916 332.098358 15.171387 C 334.923645 13.703857 339.199463 11.669922 341.600128 10.65155 C 344.000763 9.633179 348.185364 8.037292 350.899139 7.105164 C 353.612885 6.173035 357.882843 4.888672 360.387939 4.250977 C 362.893005 3.613281 366.735962 2.76886 368.927856 2.374451 C 371.11972 1.980042 375.950745 1.465515 379.663513 1.231018 C 384.511902 0.924805 388.094452 0.917358 392.37851 1.204468 C 395.658997 1.424316 400.510803 2.044922 403.160248 2.583557 C 405.809601 3.122192 409.722412 4.170288 411.855377 4.91272 C 413.98822 5.655151 417.247681 7.023132 419.098541 7.952637 C 420.94931 8.882202 423.612305 10.385437 425.016144 11.293091 C 426.420013 12.200806 428.852356 14.046692 430.421417 15.395142 C 431.990509 16.74353 434.244293 18.95166 435.42984 20.302002 C 436.615265 21.652283 438.512848 24.326843 439.646606 26.245483 C 440.780334 28.164001 442.428009 31.657104 443.308136 34.007751 C 444.188232 36.358459 445.493683 40.587463 446.209045 43.405701 C 446.924438 46.223877 447.71994 50.152222 447.976807 52.135376 C 448.242188 54.183472 448.443939 60.004089 448.443939 65.609436 C 448.443939 73.129456 448.279449 76.630188 447.752655 80.320557 C 447.372467 82.98407 446.49057 87.710388 445.792908 90.823425 C 445.095337 93.936462 443.642181 99.426025 442.563751 103.0224 C 441.485229 106.618713 439.440613 112.738159 438.02005 116.621094 C 436.599426 120.503967 432.192993 131.793762 428.227875 141.709595 C 424.262787 151.625366 420.061035 162.556458 418.890594 166.000854 C 417.720245 169.445313 416.076111 174.961243 415.237061 178.258545 C 414.398071 181.555847 413.414154 186.508972 413.050537 189.265564 C 412.629028 192.4617 412.395599 196.683868 412.406158 200.919647 C 412.417755 205.526764 412.686279 209.596832 413.282684 214.203949 C 413.755615 217.857147 414.572723 223.066467 415.098419 225.780273 C 415.624115 228.49408 416.629517 232.934814 417.33255 235.648621 C 418.035675 238.362427 419.481598 243.132019 420.545868 246.247711 C 421.610107 249.363403 423.251007 253.718811 424.1922 255.9263 C 425.133453 258.133789 426.905121 261.849609 428.12912 264.183685 C 429.35321 266.517731 431.356689 270.021698 432.581329 271.970184 C 433.805969 273.918671 435.80603 276.87674 437.025787 278.543671 C 438.245514 280.210571 441.655182 283.973938 444.602814 286.906708 C 447.550476 289.839508 451.755554 293.616364 453.947418 295.299744 C 456.139313 296.983124 460.409271 299.990906 463.436218 301.983734 C 466.463196 303.976532 471.92868 307.310181 475.581879 309.391785 C 479.235077 311.47345 487.006409 315.68985 492.851471 318.761597 C 498.696533 321.833374 506.980347 326.234039 511.259766 328.540894 C 515.539124 330.847717 521.564087 334.249481 524.648376 336.100372 C 527.732788 337.951233 532.429749 340.895599 535.08606 342.643402 C 537.742493 344.391174 541.965454 347.360565 544.47052 349.242004 C 546.975586 351.123474 551.679565 354.857971 554.92395 357.540863 C 558.168274 360.223785 563.292236 364.310791 566.310486 366.623108 C 569.328735 368.935394 577.434448 375.084137 584.323181 380.286957 C 591.211914 385.489777 598.983276 391.442383 601.592773 393.514984 C 604.202393 395.587555 608.386963 399.08316 610.89209 401.282959 C 613.397156 403.482727 617.754578 407.594116 620.575378 410.419373 C 623.396179 413.244598 627.204102 417.349518 629.037415 419.541443 C 630.870789 421.733368 634.069031 426.05838 636.14447 429.152618 C 638.219971 432.246857 641.106201 437.200012 642.558228 440.159607 C 644.010376 443.119232 645.789917 447.26178 646.512695 449.365234 C 647.235535 451.46875 648.35614 455.292419 649.00293 457.862427 C 649.649719 460.432343 650.374329 464.594238 650.613342 467.111084 C 650.887817 470.001587 650.95282 474.351257 650.789917 478.919922 C 650.598389 484.292603 650.289856 487.351563 649.59021 490.814026 C 649.072144 493.377747 647.890015 497.779602 646.963318 500.595947 C 646.03656 503.412292 644.163757 508.034302 642.801453 510.867065 C 641.439331 513.69989 639.112976 518.014648 637.631836 520.455505 C 636.150818 522.896362 633.713013 526.539673 632.2146 528.551819 C 630.716125 530.563965 627.962158 534.059326 626.094727 536.319458 C 624.227173 538.579529 619.786438 543.340942 616.226379 546.90033 C 612.666199 550.459717 607.53302 555.319214 604.819214 557.699158 C 602.105469 560.079102 596.212891 564.950623 591.724731 568.52478 C 587.236511 572.098999 579.465149 578.102051 574.455078 581.864929 C 569.445068 585.627869 563.12616 590.259766 560.41333 592.158081 C 557.700439 594.056458 552.918152 597.141418 549.785889 599.013611 C 546.653687 600.885742 541.80719 603.567627 539.01593 604.973267 C 536.224609 606.378906 532.125427 608.329224 529.906677 609.307312 C 527.687866 610.2854 523.908264 611.790344 521.507629 612.651672 C 519.106995 613.513062 515.007813 614.831787 512.398376 615.582214 C 509.788971 616.332642 505.187653 617.445374 502.173096 618.054871 C 499.158661 618.664368 493.863922 619.450073 490.407013 619.800903 C 485.300568 620.319153 482.128693 620.390381 473.494354 620.180786 C 467.649292 620.038879 458.853149 619.765686 453.947418 619.57373 C 449.041718 619.381714 440.843445 618.793091 435.728943 618.265686 C 430.614441 617.73822 419.512573 616.540527 411.058075 615.604126 C 402.603607 614.667725 391.928711 613.557373 387.33609 613.13678 C 382.7435 612.716125 376.850983 612.212585 374.241577 612.017822 C 371.632141 611.822998 364.37323 611.349609 358.110626 610.96582 C 349.08374 610.412598 341.611481 610.267822 322.053192 610.26709 C 307.043854 610.266541 293.795074 610.456177 288.222168 610.751343 C 283.184082 611.018188 275.327393 611.577148 270.762787 611.993591 C 266.198212 612.409973 258.962219 613.176331 254.68277 613.696594 C 250.40332 614.216858 243.656769 615.166687 239.690475 615.807251 C 235.724182 616.447876 229.267075 617.559753 225.341415 618.278137 C 221.415787 618.996521 215.950241 620.16394 213.195755 620.872375 C 210.441315 621.580811 205.796494 623.012085 202.873962 624.053101 C 199.951431 625.094055 194.656662 627.048584 191.107849 628.396423 C 187.559052 629.744324 181.068726 632.078796 176.684891 633.584106 C 172.301056 635.089417 165.938187 637.1604 162.545151 638.186218 C 159.152115 639.212097 153.585938 640.897217 150.175903 641.93103 C 146.765823 642.964783 141.002029 644.436401 137.367416 645.201233 C 133.732864 645.966064 127.172379 647.416199 122.788544 648.423767 C 118.404701 649.431335 111.235893 651.042297 106.857841 652.003723 C 102.47979 652.965149 96.631401 654.170349 93.861397 654.681946 C 91.091438 655.193542 86.560539 655.784851 83.792801 655.995972 C 81.02507 656.207153 76.540176 656.362915 73.82637 656.342163 Z M 83.315163 610.94873 C 85.611473 610.870972 89.355835 610.634399 91.636024 610.422974 C 93.916161 610.211609 98.449608 609.539124 101.710266 608.92865 C 104.970924 608.318176 109.59565 607.307068 111.987442 606.681763 C 114.379242 606.056396 120.179123 604.524414 124.876076 603.277283 C 129.573029 602.030212 137.002731 599.875854 141.386581 598.489807 C 145.770416 597.10376 152.428467 594.856445 156.182327 593.495728 C 159.936157 592.13501 165.914093 589.740479 169.466644 588.174561 C 173.01915 586.608704 178.475433 584.318054 181.591675 583.084351 C 184.707886 581.850586 189.404831 580.16803 192.029358 579.345337 C 194.653824 578.522705 199.192322 577.250671 202.114853 576.518738 C 205.037384 575.786743 210.502945 574.585693 214.260513 573.84967 C 218.018082 573.113708 224.166809 572.002625 227.924377 571.380676 C 231.681946 570.758667 237.830658 569.825378 241.588242 569.306641 C 245.34581 568.787903 251.494522 568.012573 255.252106 567.583618 C 259.009674 567.154724 266.097778 566.470093 271.00351 566.062195 C 275.90921 565.654297 284.192932 565.102112 289.411743 564.835083 C 294.945587 564.55188 308.234253 564.351379 321.294098 564.354004 C 337.525543 564.3573 347.238708 564.543152 356.592407 565.029175 C 363.690002 565.398071 373.760468 566.030029 378.971039 566.433533 C 384.181732 566.837097 388.68399 567.258972 388.976074 567.371033 C 389.268158 567.483093 391.239014 567.651978 393.355743 567.746338 C 395.472565 567.840637 402.413818 568.516479 408.780762 569.248169 C 415.147705 569.979858 425.395599 571.174683 431.553864 571.903381 C 437.712128 572.63208 445.855347 573.491638 449.649963 573.813416 C 454.355804 574.212524 461.252228 574.39856 471.341583 574.39856 C 484.424072 574.39856 486.653748 574.310242 490.631348 573.634399 C 493.104919 573.214111 497.186035 572.282532 499.70047 571.564209 C 502.214996 570.845886 506.484955 569.374329 509.18927 568.294067 C 511.893677 567.213867 515.577209 565.593628 517.374939 564.693604 C 519.172607 563.793518 522.332458 562.083984 524.396606 560.894531 C 526.460876 559.705078 530.370178 557.231995 533.083984 555.398743 C 535.797729 553.565552 542.03186 549.037476 546.937622 545.336487 C 551.843323 541.635498 559.187622 535.945801 563.258301 532.692749 C 567.329041 529.439636 572.704102 524.981689 575.203064 522.786133 C 577.701965 520.590576 581.654358 516.88147 583.986084 514.543701 C 586.317871 512.205933 589.613831 508.630066 591.310608 506.597321 C 593.007263 504.564575 595.43042 501.390381 596.695374 499.543457 C 597.960327 497.696594 599.735901 494.782104 600.641113 493.066895 C 601.546265 491.351654 602.817993 488.428711 603.467163 486.571472 C 604.369568 483.989685 604.738647 482.071777 605.03479 478.425385 C 605.303528 475.115479 605.299133 472.864136 605.020447 471.067841 C 604.799622 469.644257 604.110535 466.90509 603.489441 464.980713 C 602.868225 463.056396 601.578857 460.119843 600.624329 458.455078 C 599.669739 456.790283 597.946716 454.119873 596.795349 452.520813 C 595.644043 450.921692 593.220886 448.011963 591.410461 446.054688 C 589.600098 444.097443 586.494873 440.960724 584.509827 439.084198 C 582.524658 437.207703 578.852539 433.961945 576.349426 431.871368 C 573.846313 429.780823 564.197754 422.354156 554.908203 415.367645 C 545.618652 408.381134 535.541626 400.677887 532.514648 398.24939 C 529.487671 395.820862 524.79071 392.00354 522.076965 389.766541 C 519.36322 387.52948 514.239258 383.764343 510.690399 381.399567 C 507.141571 379.03479 501.249054 375.395538 497.595886 373.312347 C 493.942688 371.229156 485.402771 366.586456 478.618286 362.995209 C 471.833801 359.403961 463.123108 354.752106 459.261169 352.657776 C 455.3992 350.563416 450.275238 347.660797 447.874603 346.20752 C 445.473969 344.754242 440.870514 341.829346 437.644684 339.707733 C 434.418854 337.586121 430.148895 334.630249 428.155884 333.139069 C 426.162872 331.647888 422.040161 328.306702 418.994293 325.714172 C 415.948425 323.121643 412.35379 319.815521 411.006195 318.367249 C 409.658569 316.918976 407.453278 314.453064 406.10556 312.88739 C 404.757874 311.321747 402.528839 308.588989 401.15213 306.814575 C 399.775513 305.040192 397.423767 301.752625 395.926147 299.508911 C 394.428497 297.265167 392.00415 293.336792 390.538849 290.779205 C 389.073456 288.221588 386.998535 284.335632 385.927704 282.143707 C 384.856964 279.951782 383.309845 276.621216 382.489685 274.742462 C 381.669525 272.863678 380.237854 269.287598 379.308167 266.795624 C 378.37854 264.30368 377.111267 260.727448 376.492096 258.84845 C 375.872833 256.969452 374.860199 253.713562 374.241669 251.61319 C 373.623138 249.512787 372.59964 245.659302 371.967316 243.049896 C 371.334869 240.44046 370.397583 235.914307 369.884399 232.99176 C 369.371155 230.069244 368.775238 225.909271 368.560059 223.747406 C 368.344788 221.585571 368.168823 215.778442 368.168915 210.842651 C 368.169098 205.90686 368.338776 198.708771 368.546082 194.846802 C 368.753357 190.984863 369.094269 185.519348 369.303589 182.701172 C 369.512909 179.882996 370.042297 175.186035 370.480072 172.263489 C 370.917694 169.340942 371.949799 164.302429 372.77359 161.066711 C 373.59726 157.831055 374.922729 153.304871 375.718994 151.008606 C 376.515259 148.71228 378.209808 144.094604 379.484772 140.74707 C 380.759735 137.399475 383.18985 131.165405 384.88504 126.893433 C 386.580322 122.62146 389.433075 115.368652 391.224548 110.776123 C 393.016022 106.183533 395.149536 100.54718 395.965729 98.250916 C 396.781799 95.95459 398.121735 91.855469 398.943115 89.141663 C 399.764557 86.427856 400.866425 82.178345 401.391754 79.698242 C 401.928375 77.164368 402.521149 72.591797 402.74472 69.260559 C 403.026611 65.060486 403.023193 62.336243 402.73288 59.916199 C 402.507507 58.037415 401.990173 55.219238 401.583374 53.653564 C 401.039063 51.559387 400.552216 50.544983 399.741302 49.815918 C 399.13501 49.270874 397.547668 48.446716 396.213776 47.984375 C 394.419159 47.362366 392.527039 47.087646 388.937439 46.927673 C 386.269348 46.808838 382.255615 46.899414 380.017975 47.129028 C 377.780304 47.358643 373.985352 48.045166 371.584717 48.654663 C 369.184052 49.26416 365.426453 50.440308 363.234558 51.268311 C 361.042694 52.096313 357.121429 53.841797 354.520813 55.147278 C 351.920197 56.452698 348.21817 58.510132 346.294189 59.719421 C 344.370209 60.92865 341.462463 62.919434 339.832611 64.143311 C 338.202789 65.367188 334.494537 68.674316 331.592133 71.492493 C 328.689697 74.310669 324.320221 79.007629 321.882141 81.930176 C 319.444061 84.852722 314.309357 91.172241 310.471741 95.973572 C 306.634094 100.774902 301.350433 107.28479 298.730286 110.440002 C 295.956024 113.780823 288.993011 121.151855 282.058228 128.089172 C 275.508728 134.640991 263.89444 146.381531 256.248688 154.179199 C 248.602951 161.976929 234.661423 175.880005 225.267517 185.075134 C 215.873611 194.270172 203.319946 206.315002 197.370453 211.8414 C 191.420975 217.367767 182.902924 225.402863 178.441437 229.697144 C 173.979935 233.991486 168.406754 239.591766 166.05661 242.142303 C 163.706421 244.69281 159.841583 249.113525 157.46814 251.966064 C 155.094635 254.818634 151.268646 259.783691 148.965942 262.999603 C 146.663239 266.215515 143.261078 271.278198 141.405579 274.25 C 139.550125 277.221832 136.651031 282.13678 134.963257 285.17215 C 133.275421 288.20752 130.641266 293.398926 129.109528 296.708557 C 127.577789 300.018219 125.077904 305.82373 123.554276 309.60965 C 122.030647 313.395569 119.507545 320.165314 117.947411 324.653503 C 116.387268 329.141724 113.726654 337.340027 112.034889 342.871979 C 110.34317 348.403961 106.893196 360.103638 104.368332 368.871277 C 101.843422 377.638916 98.492279 389.167816 96.921249 394.491028 C 95.350227 399.81424 92.692162 408.354156 91.014427 413.468628 C 89.336655 418.583069 86.555115 426.525208 84.833183 431.117767 C 83.111259 435.710327 79.994408 443.567047 77.906876 448.577148 C 75.819344 453.587219 72.10463 462.383362 69.651955 468.124084 C 67.199318 473.864777 63.61364 482.490112 61.683773 487.291443 C 59.753952 492.092773 57.133926 498.947327 55.861511 502.523834 C 54.589092 506.100342 52.789604 511.651306 51.862686 514.859253 C 50.935768 518.067261 49.737671 522.660156 49.200218 525.065735 C 48.662815 527.471313 47.871277 531.485107 47.441223 533.985229 C 47.011173 536.485352 46.468067 540.751282 46.234367 543.465088 C 45.98209 546.394531 45.901009 551.560547 46.034771 556.180054 C 46.18549 561.382813 46.520191 565.469971 47.044994 568.515503 C 47.476715 571.020508 48.338722 575.060425 48.960636 577.493042 C 49.58255 579.925659 50.698177 583.597839 51.43977 585.653442 C 52.181358 587.708984 53.53912 590.939148 54.457001 592.831482 C 55.37484 594.723816 56.992798 597.568298 58.052364 599.152527 C 59.111977 600.736816 61.182972 603.249023 62.654613 604.735352 C 64.126259 606.22168 65.96096 607.832703 66.731689 608.315491 C 67.502472 608.798279 68.932648 609.496094 69.909882 609.866211 C 70.887115 610.236328 73.363655 610.663147 75.413383 610.814636 C 77.463066 610.966187 81.01886 611.026489 83.315163 610.94873 Z M 204.771713 558.631531 C 201.849182 558.719971 198.347794 558.646973 196.990906 558.469421 C 195.634033 558.29187 192.90123 557.868286 190.918076 557.528137 C 188.934937 557.187988 186.385651 556.646606 185.253067 556.325134 C 184.120483 556.003601 181.532196 554.906738 179.501373 553.887573 C 177.47049 552.868469 174.383392 551.064087 172.641129 549.87793 C 170.898911 548.691711 167.986191 546.449341 166.168457 544.894897 C 164.350754 543.340454 161.617996 540.618286 160.095627 538.845581 C 158.573288 537.072937 156.548492 534.455078 155.5961 533.028198 C 154.643692 531.601318 153.074707 528.839722 152.109467 526.891357 C 151.144241 524.942993 149.909256 521.982422 149.365036 520.312439 C 148.820831 518.642395 148.169449 516.080444 147.917496 514.619141 C 147.662292 513.13916 147.461258 508.599792 147.463531 504.371246 C 147.467514 497.095856 147.51741 496.58783 148.663208 492.153076 C 149.320709 489.608154 150.736191 485.338196 151.808731 482.664276 C 152.881226 479.990356 155.091492 475.240662 156.720428 472.109375 C 158.349319 468.978058 161.196014 463.5979 163.046371 460.153473 C 164.896683 456.709045 166.970139 452.26828 167.653946 450.285126 C 168.683731 447.298767 168.897873 446.114136 168.900696 443.388489 C 168.902557 441.578461 168.483994 437.650116 167.970535 434.658783 C 167.457092 431.66745 166.422256 426.487244 165.670898 423.147186 C 164.919571 419.807129 163.722443 414.277344 163.010605 410.858765 C 162.298752 407.440186 161.412109 402.145447 161.040237 399.092682 C 160.668427 396.039886 160.364166 390.980164 160.364166 387.848877 C 160.364166 384.141815 160.608704 380.632843 161.065125 377.790741 C 161.450607 375.390076 162.336334 371.547119 163.033356 369.250824 C 163.730377 366.954559 165.011169 363.367798 165.879623 361.280243 C 166.748016 359.192719 168.411011 355.776764 169.575104 353.689209 C 170.739243 351.601685 172.834976 348.18573 174.2323 346.098175 C 175.629639 344.010651 178.878571 339.569885 181.452179 336.229828 C 184.025772 332.889771 187.726456 328.069183 189.675919 325.517395 C 191.625381 322.965607 194.054565 319.532806 195.074158 317.888947 C 196.093689 316.245087 198.031158 312.696564 199.379654 310.003357 C 200.728134 307.31015 202.953232 302.288422 204.324295 298.843994 C 205.695343 295.399567 208.511826 287.969818 210.583054 282.333496 C 212.654327 276.697144 216.495895 266.449249 219.119858 259.560394 C 221.74382 252.671509 226.563507 239.861633 229.830292 231.093994 C 233.097015 222.326385 237.547302 210.672852 239.719803 205.197327 C 241.892319 199.721832 244.888702 192.462891 246.378448 189.066376 C 247.868164 185.669861 249.819443 181.35376 250.714615 179.474976 C 251.609848 177.596191 253.48259 174.180237 254.876297 171.883911 C 256.27002 169.587646 258.803497 165.575806 260.506287 162.96875 C 262.209076 160.361633 264.813812 156.604065 266.294586 154.618591 C 267.775421 152.633057 271.122437 148.531982 273.732452 145.505066 C 276.342438 142.478149 280.363159 138.196167 282.667358 135.989563 C 284.971588 133.782959 289.05426 130.315063 291.740021 128.283081 C 294.425812 126.251099 297.989624 123.914734 299.659637 123.091187 C 301.444763 122.210876 304.885803 121.030579 308.009796 120.227112 C 312.654938 119.032288 313.920441 118.856323 318.067902 118.828247 C 321.768738 118.803223 323.56366 118.981201 326.228271 119.637634 C 328.107025 120.100464 331.20874 121.238586 333.12085 122.166687 C 335.03302 123.094849 337.945435 124.869995 339.592926 126.111389 C 341.240448 127.352844 343.775116 129.619873 345.225586 131.149292 C 346.675964 132.67865 348.95755 135.381531 350.295624 137.155579 C 351.71402 139.036072 353.808502 142.596924 355.318481 145.694885 C 356.742981 148.617371 358.331238 152.223694 358.848053 153.708801 C 359.364746 155.193909 359.97818 157.585083 360.211121 159.022522 C 360.444092 160.459961 360.78656 165.222778 360.972351 169.606628 C 361.158051 173.990479 361.312439 180.224548 361.315399 183.460266 C 361.318359 186.695923 361.071136 192.546021 360.766083 196.460419 C 360.460938 200.374817 359.869202 208.146149 359.45108 213.730011 C 359.032898 219.313904 358.41864 226.444489 358.08606 229.575806 C 357.753387 232.707092 357.381714 238.941254 357.259857 243.429443 C 357.123291 248.464722 357.216583 253.988129 357.503479 257.852417 C 357.759247 261.296814 358.302429 267.103973 358.710632 270.757172 C 359.118805 274.410339 359.891235 280.046692 360.427307 283.282379 C 360.963287 286.518066 361.896484 290.702606 362.501129 292.58139 C 363.105774 294.460175 364.37619 297.363739 365.324219 299.033752 C 366.272278 300.703796 368.623901 304.233582 370.549927 306.877716 C 372.475952 309.521881 375.674347 313.788391 377.657532 316.358887 C 379.640717 318.929321 383.41391 323.512482 386.042511 326.54361 C 388.671112 329.574768 393.53894 334.790009 396.859741 338.133118 C 400.180634 341.476227 405.808014 346.856384 409.364929 350.08902 C 412.921936 353.321655 419.326874 358.965759 423.598114 362.6315 C 427.869476 366.297241 435.292511 372.613586 440.093781 376.667816 C 444.895081 380.722046 452.239441 387.029846 456.41452 390.68512 C 460.5896 394.340393 468.966309 402.285736 475.02951 408.34137 C 481.092712 414.397034 487.546021 421.039581 489.370178 423.1026 C 491.194366 425.165619 495.042145 429.777161 497.920746 433.350494 C 500.799469 436.923828 505.323029 442.665619 507.973328 446.110046 C 510.623596 449.554504 513.909668 454.029144 515.275696 456.053772 C 516.641663 458.078369 518.678345 461.49472 519.801575 463.64563 C 520.924866 465.79657 522.434937 469.093201 523.157227 470.971527 C 523.879578 472.849854 524.871338 476.174377 525.361267 478.359314 C 526.099792 481.653076 526.252014 483.404358 526.252014 488.607239 C 526.252014 494.103546 526.128906 495.377136 525.260132 498.867737 C 524.714661 501.059662 523.722412 504.219421 523.055115 505.889465 C 522.387878 507.559479 521.05719 510.327332 520.098145 512.040222 C 519.13916 513.753113 517.289856 516.571289 515.98877 518.302856 C 514.687683 520.034363 511.853088 523.221924 509.689636 525.386353 C 507.526306 527.550781 503.877472 530.722229 501.581177 532.434021 C 499.284851 534.145874 495.855835 536.513367 493.961121 537.695251 C 492.066437 538.877075 488.385712 540.931824 485.781952 542.261292 C 483.178192 543.590759 479.190948 545.395691 476.921509 546.272339 C 474.652191 547.148865 471.15921 548.293579 469.159515 548.816101 C 467.107758 549.352173 463.291382 549.94989 460.399811 550.187988 C 457.281006 550.444824 451.636841 550.519836 445.976837 550.3797 C 440.862335 550.253052 433.091095 549.802002 428.707245 549.377319 C 424.323395 548.952637 418.089233 548.156189 414.853607 547.607422 C 411.61795 547.058655 406.323151 546.043274 403.087494 545.350952 C 399.851868 544.658691 394.215485 543.40387 390.562286 542.5625 C 386.909119 541.721069 381.528931 540.59082 378.606415 540.050842 C 375.683868 539.510864 371.362579 538.923767 369.003632 538.746216 C 366.644592 538.568726 362.289215 538.566528 359.325073 538.741333 C 356.36084 538.916199 349.665588 539.66394 344.446747 540.402954 C 339.227905 541.142029 331.11499 542.263123 326.41806 542.894348 C 321.7211 543.525513 313.778961 544.631287 308.76889 545.351563 C 303.75882 546.071838 296.072906 547.016113 291.689056 547.44989 C 287.305237 547.883728 280.814911 548.654785 277.266113 549.16333 C 273.717285 549.671997 268.636017 550.340454 265.974426 550.648926 C 263.312836 550.957397 258.615906 551.561829 255.536774 551.992065 C 252.457626 552.422302 245.839203 553.28772 240.829132 553.915161 C 235.819061 554.542603 229.542572 555.396484 226.881348 555.812744 C 224.220184 556.228882 219.352448 556.997253 216.064117 557.520142 C 212.679428 558.05835 207.779968 558.540527 204.771713 558.631531 Z M 213.31163 514.947998 C 217.382309 514.85498 222.420868 514.611267 224.508408 514.406494 C 226.595947 514.201721 232.488495 513.451538 237.602951 512.73938 C 242.717392 512.027222 253.56311 510.404419 261.704468 509.133118 C 269.845856 507.861816 282.314148 505.795746 289.411743 504.54187 C 296.509338 503.287964 307.95285 501.162415 314.841736 499.818481 C 321.730591 498.474518 332.661652 496.392761 339.133026 495.192322 C 350.899139 493.009766 350.899139 493.009766 362.475464 492.997253 C 371.633362 492.987305 375.095276 493.128845 379.046661 493.674591 C 381.793854 494.054016 386.917816 494.934967 390.433197 495.632233 C 393.948608 496.329498 400.240875 497.697449 404.415924 498.672089 C 408.591003 499.646729 414.48349 500.926697 417.510468 501.516418 C 420.537415 502.10614 425.405151 502.855591 428.327698 503.181824 C 431.250214 503.508057 435.776398 503.945496 438.385803 504.15387 C 440.995239 504.362244 445.265198 504.639954 447.874603 504.770935 C 450.484009 504.901947 453.927124 504.84137 455.526062 504.636353 C 457.317444 504.406647 459.606049 503.75647 461.489441 502.9422 C 463.170471 502.215393 466.166473 500.723022 468.147156 499.625732 C 470.127869 498.528442 473.087555 496.559265 474.724274 495.249756 C 476.360992 493.940186 478.348358 492.040833 479.140747 491.028992 C 480.386963 489.437439 480.555511 488.991821 480.38974 487.726624 C 480.284119 486.919922 479.398621 484.962646 478.41507 483.361755 C 477.434326 481.765503 475.085388 478.409912 473.195221 475.904877 C 471.305054 473.399841 467.173828 468.105103 464.01474 464.138763 C 460.85553 460.172455 456.29776 454.792297 453.886169 452.182892 C 451.474609 449.573486 446.274567 444.213715 442.330597 440.272308 C 438.386536 436.330902 431.662292 430.011353 427.387787 426.228882 C 423.113312 422.446411 416.793701 416.703766 413.344391 413.467468 C 409.894958 410.231171 403.059052 404.169189 398.15332 399.996429 C 393.247589 395.823639 386.757324 390.207001 383.730347 387.514984 C 380.7034 384.822937 374.600006 379.197388 370.167145 375.013672 C 365.734375 370.829987 358.88382 364.035858 354.943817 359.915619 C 351.003754 355.795349 346.166138 350.403076 344.193512 347.93277 C 342.220825 345.462494 338.809418 341.05014 336.612518 338.127594 C 334.41568 335.205048 331.496033 331.191284 330.124481 329.20813 C 328.752869 327.224976 326.742188 324.065216 325.656311 322.186432 C 324.570465 320.307648 322.849884 316.92807 321.832855 314.67627 C 320.815857 312.424469 319.383087 308.685303 318.649017 306.366974 C 317.914917 304.048676 316.807922 299.656921 316.189056 296.607513 C 315.57016 293.558136 314.726593 288.586609 314.314362 285.559692 C 313.902191 282.532776 313.29538 277.408813 312.965881 274.173126 C 312.636414 270.937439 312.112396 265.16272 311.801422 261.340363 C 311.490448 257.518036 311.235992 251.20816 311.235992 247.318451 C 311.235992 243.428711 311.418854 237.845367 311.642303 234.91098 C 311.865814 231.976624 312.887909 224.62262 313.913605 218.568787 C 314.939331 212.514954 316.111542 205.683044 316.518463 203.386719 C 316.925415 201.090424 317.525909 197.169159 317.852936 194.672791 C 318.179901 192.176422 318.447449 187.708008 318.447449 184.742981 C 318.447449 181.598572 318.220032 178.191284 317.901672 176.566833 C 317.601501 175.035034 316.918274 172.513367 316.383362 170.963196 C 315.84848 169.412964 315.150757 167.747681 314.832886 167.262573 C 314.450317 166.67865 313.886688 166.380432 313.165894 166.380432 C 312.322235 166.380432 311.602142 166.893127 309.970337 168.655762 C 308.811707 169.907166 306.761047 172.59729 305.4133 174.633667 C 304.065491 176.670105 302.076019 179.873535 300.992157 181.752258 C 299.908325 183.631042 296.997223 189.267426 294.523132 194.277496 C 292.049011 199.287567 288.501648 207.058899 286.640137 211.547089 C 284.778595 216.035278 281.447693 224.404419 279.23819 230.145142 C 277.028687 235.885834 273.2659 245.877533 270.876404 252.348907 C 268.486938 258.820282 264.190643 270.178345 261.329102 277.589081 C 258.467529 284.999847 254.759125 294.82074 253.088165 299.41333 C 251.417252 304.00589 248.770767 311.008606 247.207153 314.974945 C 245.643494 318.941254 243.041122 324.930145 241.424042 328.28363 C 239.807007 331.637085 237.522141 336.094452 236.346603 338.188904 C 235.171112 340.283325 232.722092 344.115326 230.904358 346.704437 C 229.086655 349.293549 225.004761 354.742493 221.833481 358.813171 C 218.662231 362.88385 215.027267 367.666199 213.755768 369.440613 C 212.484283 371.215027 210.740204 373.895477 209.880096 375.397186 C 209.019989 376.898895 207.871323 379.375488 207.327576 380.900696 C 206.566849 383.034332 206.305679 384.592834 206.194809 387.659088 C 206.084946 390.699249 206.271393 392.904602 206.98111 396.958099 C 207.492798 399.880676 208.965652 407.054169 210.254089 412.899292 C 211.542542 418.744385 213.015945 426.174103 213.528275 429.40979 C 214.040665 432.645477 214.570526 437.659485 214.705719 440.552094 C 214.862915 443.914856 214.779892 447.336548 214.475494 450.040894 C 214.213623 452.367126 213.432281 456.490784 212.739151 459.20459 C 212.046021 461.918396 210.640366 466.200867 209.615448 468.72113 C 208.590546 471.241455 206.151398 476.365387 204.195114 480.107697 C 202.238846 483.849976 199.144562 489.864838 197.318939 493.47403 C 195.038055 497.983276 193.804611 500.912933 193.376129 502.838806 C 192.801239 505.422729 192.800461 505.74234 193.366028 506.934143 C 193.703415 507.645142 194.614304 508.829376 195.390274 509.565796 C 196.166245 510.302246 197.569733 511.418213 198.509109 512.045776 C 199.448502 512.67334 200.910172 513.538574 201.757263 513.968384 C 202.604355 514.398254 203.885345 514.832581 204.603897 514.933594 C 205.322464 515.034607 209.240952 515.041077 213.31163 514.947998 Z M 355.653442 480.982544 C 354.082336 480.957092 351.795105 480.789978 350.57074 480.611176 C 349.346283 480.432373 346.784302 479.870056 344.877472 479.361511 C 342.97052 478.853027 340.043976 477.93158 338.373932 477.313904 C 336.703888 476.696228 333.544128 475.462128 331.352234 474.571472 C 329.160309 473.680817 326.145996 472.55658 324.653778 472.073151 C 322.70459 471.44165 320.299896 471.081909 316.113861 470.795502 C 312.909119 470.576202 308.579132 470.218506 306.491577 470.000641 C 304.404053 469.782745 301.073486 469.171417 299.090332 468.642151 C 297.107178 468.112854 294.079346 467.024078 292.361847 466.222595 C 290.644318 465.421143 287.920135 463.855774 286.308075 462.74408 C 284.695984 461.632385 282.382629 459.80426 281.167267 458.68158 C 279.951874 457.558929 277.940186 455.290344 276.696869 453.640289 C 275.453491 451.990234 273.845306 449.40741 273.123077 447.900696 C 272.400879 446.393982 271.44989 443.880188 271.009888 442.314545 C 270.560974 440.717255 270.114746 437.718842 269.993225 435.482605 C 269.823059 432.352173 269.948883 430.544525 270.579834 427.055389 C 271.021606 424.612335 271.382019 421.879578 271.380829 420.982574 C 271.379425 419.947083 270.471741 416.788239 268.894592 412.329956 C 267.528412 408.468018 265.813568 403.258789 265.083832 400.753876 C 264.354156 398.248932 263.551514 395.003754 263.30014 393.542389 C 263.048798 392.080963 262.84314 388.152496 262.84314 384.812469 C 262.84314 379.153656 262.919037 378.498108 263.956543 375.196747 C 264.568939 373.248138 265.813293 370.384033 266.721771 368.832092 C 267.630249 367.280121 269.502167 364.813934 270.881592 363.351715 C 272.260986 361.889465 274.62088 359.869537 276.125824 358.863007 C 277.630737 357.856445 280.207916 356.472626 281.852814 355.787811 C 283.497803 355.103027 286.383881 354.220947 288.266388 353.827667 C 290.148865 353.434387 293.824036 353.005737 296.433472 352.875122 C 299.180542 352.73761 303.095306 352.824554 305.732483 353.081696 C 308.237518 353.325928 312.344879 353.940857 314.859985 354.448151 C 317.375061 354.955475 321.527557 355.97348 324.08783 356.710419 C 326.648041 357.447327 330.568176 358.759186 332.799255 359.625671 C 335.030334 360.492157 338.326996 361.934845 340.125183 362.831665 C 341.923431 363.728485 344.954193 365.397919 346.860199 366.541565 C 348.766296 367.685181 352.470062 370.190857 355.090973 372.109741 C 357.711792 374.028625 361.769165 377.151062 364.107361 379.048523 C 366.445465 380.945984 370.151947 384.066589 372.343811 385.983185 C 374.535675 387.899811 378.039398 391.238647 380.12973 393.402802 C 382.220123 395.566986 384.994476 398.670135 386.295013 400.298706 C 387.595642 401.927277 389.774078 405.137054 391.135986 407.431488 C 392.497955 409.725952 394.363922 413.005005 395.282593 414.718323 C 396.354248 416.71701 397.51181 419.805939 398.512482 423.336945 C 399.370178 426.363861 400.280792 430.036041 400.53598 431.497314 C 400.791199 432.958588 400.999969 435.691376 400.999969 437.57016 C 400.999969 439.448944 400.774414 442.315399 400.498657 443.940094 C 400.222961 445.564758 399.606659 448.041382 399.129181 449.443604 C 398.651581 450.845825 397.615692 453.274109 396.827209 454.839752 C 396.038635 456.405396 394.70343 458.711182 393.860016 459.963684 C 393.016693 461.216217 390.43515 464.125244 388.123383 466.428223 C 385.791748 468.750916 382.399048 471.644623 380.504181 472.926788 C 378.625397 474.198059 375.843353 475.863342 374.321808 476.627441 C 372.800354 477.39151 370.067596 478.513977 368.248993 479.121826 C 366.43045 479.729675 363.495239 480.40741 361.726288 480.62793 C 359.957397 480.848419 357.22467 481.007996 355.653442 480.982544 Z M 352.758148 433.483215 C 353.154297 433.434753 353.653564 433.115631 353.867615 432.774078 C 354.159607 432.307983 353.988281 431.597992 353.180328 429.92746 C 352.367676 428.247223 350.840118 426.442871 346.94693 422.564606 C 344.110565 419.739136 340.081909 416.135193 337.994385 414.555878 C 335.90683 412.976532 332.748749 410.777985 330.97641 409.670166 C 329.204132 408.562347 325.721588 406.63855 323.237488 405.395111 C 320.753418 404.151642 318.10437 403.055298 317.350677 402.958801 C 316.538269 402.854797 315.712494 402.988281 315.322327 403.286682 C 314.704407 403.759338 314.746429 404.114197 316.011414 409.10376 C 317.01062 413.044922 317.430603 415.667542 317.637451 419.256866 C 317.790802 421.918518 318.078522 424.252777 318.276764 424.444122 C 318.475037 424.635406 321.113831 425.066956 324.140747 425.403076 C 327.167664 425.739166 331.395721 426.445862 333.536407 426.973419 C 335.677094 427.501007 339.178436 428.589142 341.3172 429.391479 C 343.455933 430.193848 346.743073 431.462555 348.621826 432.210815 C 350.50058 432.959076 352.361938 433.531647 352.758148 433.483215 Z"/>
</svg>
