<?xml version="1.0" encoding="UTF-8"?>
<!-- Generated by Pixelmator Pro 3.7.1 -->
<svg width="2776" height="702" viewBox="0 0 2776 702" xmlns="http://www.w3.org/2000/svg">
    <g id="Group-copy">
        <linearGradient id="linearGradient1" x1="423.439294" y1="312.434855" x2="169.048544" y2="524.412095" gradientUnits="userSpaceOnUse">
            <stop offset="0" stop-color="#fbd900" stop-opacity="1"/>
            <stop offset="1" stop-color="#f95400" stop-opacity="1"/>
        </linearGradient>
        <path id="Shape-copy-2" fill="url(#linearGradient1)" fill-rule="evenodd" stroke="none" d="M 74.82637 657.342163 C 72.112564 657.321411 68.44043 657.063538 66.666008 656.769043 C 64.891586 656.474609 61.814217 655.816162 59.827358 655.305847 C 57.840549 654.795471 54.690533 653.763428 52.827431 653.012268 C 50.964279 652.261169 47.864346 650.71936 45.938694 649.58606 C 44.013092 648.452759 41.024677 646.460876 39.297791 645.159668 C 37.570904 643.858398 34.549686 641.256165 32.583958 639.376953 C 30.618233 637.497681 27.629587 634.246948 25.942499 632.153076 C 24.255413 630.059204 21.703585 626.552612 20.27174 624.360718 C 18.839943 622.168823 16.499296 618.069641 15.070325 615.251465 C 13.641354 612.433289 11.521757 607.722473 10.360075 604.782898 C 9.198393 601.843384 7.55458 596.985046 6.707168 593.986694 C 5.859802 590.988281 4.667633 586.134399 4.05795 583.200317 C 3.448268 580.266235 2.689118 575.81604 2.370956 573.311035 C 2.052794 570.805969 1.614957 566.459167 1.39803 563.651489 C 1.181058 560.84375 1.004533 556.14679 1.005737 553.213806 C 1.006896 550.280762 1.266957 544.89209 1.583636 541.238892 C 1.900316 537.585693 2.587234 531.949341 3.110137 528.713684 C 3.632993 525.478027 4.669487 520.097839 5.413393 516.757813 C 6.1573 513.417725 7.52326 508.037598 8.448927 504.801941 C 9.374547 501.566254 11.053712 496.186096 12.180367 492.846039 C 13.307068 489.505981 15.328394 483.869629 16.6723 480.320831 C 18.016159 476.772034 20.748127 469.940125 22.743368 465.138763 C 24.738562 460.337433 27.853832 452.907715 29.666203 448.628265 C 31.478525 444.348816 34.568729 436.938202 36.533253 432.160217 C 38.497776 427.382233 41.452183 419.867096 43.098545 415.45993 C 44.744904 411.052765 47.290802 403.77475 48.75605 399.28653 C 50.221348 394.79834 52.623985 387.027039 54.095257 382.016937 C 55.566578 377.006866 58.493046 366.929749 60.598602 359.623383 C 62.704159 352.317017 65.798439 341.727509 67.474777 336.091187 C 69.151115 330.454834 71.979408 321.487946 73.759857 316.164703 C 75.540344 310.841492 78.107742 303.582581 79.465225 300.033752 C 80.822708 296.484955 82.972328 291.104797 84.242195 288.077881 C 85.512016 285.050964 88.726112 278.219025 91.384644 272.895813 C 94.043121 267.572601 97.617729 260.82605 99.328171 257.903534 C 101.038559 254.980988 104.362885 249.686218 106.715485 246.137421 C 109.06813 242.588623 112.488266 237.635468 114.315781 235.130432 C 116.143303 232.625397 119.214836 228.611603 121.141365 226.210968 C 123.067894 223.810303 126.67202 219.54187 129.150497 216.725555 C 131.629028 213.909241 136.989136 208.272919 141.061859 204.200348 C 145.134628 200.127808 154.613922 191.057648 162.126984 184.044495 C 169.640076 177.031372 180.866135 166.356445 187.073837 160.32251 C 193.28154 154.288574 206.860016 141.038513 217.248199 130.87793 C 227.636444 120.717285 240.331131 108.163635 245.45874 102.980835 C 250.586304 97.798096 256.937439 91.081055 259.572388 88.054138 C 262.207397 85.027222 268.147003 77.853699 272.771637 72.112976 C 277.396271 66.372253 283.769562 58.524963 286.93454 54.6745 C 290.099518 50.824097 294.824036 45.462769 297.433472 42.760498 C 300.042877 40.058228 303.885834 36.361633 305.973389 34.545837 C 308.060913 32.730103 311.595673 29.893127 313.8284 28.241394 C 316.061188 26.589722 320.15448 23.798584 322.924683 22.03894 C 325.694855 20.279297 330.273041 17.638916 333.098358 16.171387 C 335.923645 14.703857 340.199463 12.669922 342.600128 11.65155 C 345.000763 10.633179 349.185364 9.037292 351.899139 8.105164 C 354.612885 7.173035 358.882843 5.888672 361.387939 5.250977 C 363.893005 4.613281 367.735962 3.76886 369.927856 3.374451 C 372.11972 2.980042 376.950745 2.465515 380.663513 2.231018 C 385.511902 1.924805 389.094452 1.917358 393.37851 2.204468 C 396.658997 2.424316 401.510803 3.044922 404.160248 3.583557 C 406.809601 4.122192 410.722412 5.170288 412.855377 5.91272 C 414.98822 6.655151 418.247681 8.023132 420.098541 8.952637 C 421.94931 9.882202 424.612305 11.385437 426.016144 12.293091 C 427.420013 13.200806 429.852356 15.046692 431.421417 16.395142 C 432.990509 17.74353 435.244293 19.95166 436.42984 21.302002 C 437.615265 22.652283 439.512848 25.326843 440.646606 27.245483 C 441.780334 29.164001 443.428009 32.657104 444.308136 35.007751 C 445.188232 37.358459 446.493683 41.587463 447.209045 44.405701 C 447.924438 47.223877 448.71994 51.152222 448.976807 53.135376 C 449.242188 55.183472 449.443939 61.004089 449.443939 66.609436 C 449.443939 74.129456 449.279449 77.630188 448.752655 81.320557 C 448.372467 83.98407 447.49057 88.710388 446.792908 91.823425 C 446.095337 94.936462 444.642181 100.426025 443.563751 104.0224 C 442.485229 107.618713 440.440613 113.738159 439.02005 117.621094 C 437.599426 121.503967 433.192993 132.793762 429.227875 142.709595 C 425.262787 152.625366 421.061035 163.556458 419.890594 167.000854 C 418.720245 170.445313 417.076111 175.961243 416.237061 179.258545 C 415.398071 182.555847 414.414154 187.508972 414.050537 190.265564 C 413.629028 193.4617 413.395599 197.683868 413.406158 201.919647 C 413.417755 206.526764 413.686279 210.596832 414.282684 215.203949 C 414.755615 218.857147 415.572723 224.066467 416.098419 226.780273 C 416.624115 229.49408 417.629517 233.934814 418.33255 236.648621 C 419.035675 239.362427 420.481598 244.132019 421.545868 247.247711 C 422.610107 250.363403 424.251007 254.718811 425.1922 256.9263 C 426.133453 259.133789 427.905121 262.849609 429.12912 265.183685 C 430.35321 267.517731 432.356689 271.021698 433.581329 272.970184 C 434.805969 274.918671 436.80603 277.87674 438.025787 279.543671 C 439.245514 281.210571 442.655182 284.973938 445.602814 287.906708 C 448.550476 290.839508 452.755554 294.616364 454.947418 296.299744 C 457.139313 297.983124 461.409271 300.990906 464.436218 302.983734 C 467.463196 304.976532 472.92868 308.310181 476.581879 310.391785 C 480.235077 312.47345 488.006409 316.68985 493.851471 319.761597 C 499.696533 322.833374 507.980347 327.234039 512.259766 329.540894 C 516.539124 331.847717 522.564087 335.249481 525.648376 337.100372 C 528.732788 338.951233 533.429749 341.895599 536.08606 343.643402 C 538.742493 345.391174 542.965454 348.360565 545.47052 350.242004 C 547.975586 352.123474 552.679565 355.857971 555.92395 358.540863 C 559.168274 361.223785 564.292236 365.310791 567.310486 367.623108 C 570.328735 369.935394 578.434448 376.084137 585.323181 381.286957 C 592.211914 386.489777 599.983276 392.442383 602.592773 394.514984 C 605.202393 396.587555 609.386963 400.08316 611.89209 402.282959 C 614.397156 404.482727 618.754578 408.594116 621.575378 411.419373 C 624.396179 414.244598 628.204102 418.349518 630.037415 420.541443 C 631.870789 422.733368 635.069031 427.05838 637.14447 430.152618 C 639.219971 433.246857 642.106201 438.200012 643.558228 441.159607 C 645.010376 444.119232 646.789917 448.26178 647.512695 450.365234 C 648.235535 452.46875 649.35614 456.292419 650.00293 458.862427 C 650.649719 461.432343 651.374329 465.594238 651.613342 468.111084 C 651.887817 471.001587 651.95282 475.351257 651.789917 479.919922 C 651.598389 485.292603 651.289856 488.351563 650.59021 491.814026 C 650.072144 494.377747 648.890015 498.779602 647.963318 501.595947 C 647.03656 504.412292 645.163757 509.034302 643.801453 511.867065 C 642.439331 514.69989 640.112976 519.014648 638.631836 521.455505 C 637.150818 523.896362 634.713013 527.539673 633.2146 529.551819 C 631.716125 531.563965 628.962158 535.059326 627.094727 537.319458 C 625.227173 539.579529 620.786438 544.340942 617.226379 547.90033 C 613.666199 551.459717 608.53302 556.319214 605.819214 558.699158 C 603.105469 561.079102 597.212891 565.950623 592.724731 569.52478 C 588.236511 573.098999 580.465149 579.102051 575.455078 582.864929 C 570.445068 586.627869 564.12616 591.259766 561.41333 593.158081 C 558.700439 595.056458 553.918152 598.141418 550.785889 600.013611 C 547.653687 601.885742 542.80719 604.567627 540.01593 605.973267 C 537.224609 607.378906 533.125427 609.329224 530.906677 610.307312 C 528.687866 611.2854 524.908264 612.790344 522.507629 613.651672 C 520.106995 614.513062 516.007813 615.831787 513.398376 616.582214 C 510.788971 617.332642 506.187653 618.445374 503.173096 619.054871 C 500.158661 619.664368 494.863922 620.450073 491.407013 620.800903 C 486.300568 621.319153 483.128693 621.390381 474.494354 621.180786 C 468.649292 621.038879 459.853149 620.765686 454.947418 620.57373 C 450.041718 620.381714 441.843445 619.793091 436.728943 619.265686 C 431.614441 618.73822 420.512573 617.540527 412.058075 616.604126 C 403.603607 615.667725 392.928711 614.557373 388.33609 614.13678 C 383.7435 613.716125 377.850983 613.212585 375.241577 613.017822 C 372.632141 612.822998 365.37323 612.349609 359.110626 611.96582 C 350.08374 611.412598 342.611481 611.267822 323.053192 611.26709 C 308.043854 611.266541 294.795074 611.456177 289.222168 611.751343 C 284.184082 612.018188 276.327393 612.577148 271.762787 612.993591 C 267.198212 613.409973 259.962219 614.176331 255.68277 614.696594 C 251.40332 615.216858 244.656769 616.166687 240.690475 616.807251 C 236.724182 617.447876 230.267075 618.559753 226.341415 619.278137 C 222.415787 619.996521 216.950241 621.16394 214.195755 621.872375 C 211.441315 622.580811 206.796494 624.012085 203.873962 625.053101 C 200.951431 626.094055 195.656662 628.048584 192.107849 629.396423 C 188.559052 630.744324 182.068726 633.078796 177.684891 634.584106 C 173.301056 636.089417 166.938187 638.1604 163.545151 639.186218 C 160.152115 640.212097 154.585938 641.897217 151.175903 642.93103 C 147.765823 643.964783 142.002029 645.436401 138.367416 646.201233 C 134.732864 646.966064 128.172379 648.416199 123.788544 649.423767 C 119.404701 650.431335 112.235893 652.042297 107.857841 653.003723 C 103.47979 653.965149 97.631401 655.170349 94.861397 655.681946 C 92.091438 656.193542 87.560539 656.784851 84.792801 656.995972 C 82.02507 657.207153 77.540176 657.362915 74.82637 657.342163 Z M 84.315163 611.94873 C 86.611473 611.870972 90.355835 611.634399 92.636024 611.422974 C 94.916161 611.211609 99.449608 610.539124 102.710266 609.92865 C 105.970924 609.318176 110.59565 608.307068 112.987442 607.681763 C 115.379242 607.056396 121.179123 605.524414 125.876076 604.277283 C 130.573029 603.030212 138.002731 600.875854 142.386581 599.489807 C 146.770416 598.10376 153.428467 595.856445 157.182327 594.495728 C 160.936157 593.13501 166.914093 590.740479 170.466644 589.174561 C 174.01915 587.608704 179.475433 585.318054 182.591675 584.084351 C 185.707886 582.850586 190.404831 581.16803 193.029358 580.345337 C 195.653824 579.522705 200.192322 578.250671 203.114853 577.518738 C 206.037384 576.786743 211.502945 575.585693 215.260513 574.84967 C 219.018082 574.113708 225.166809 573.002625 228.924377 572.380676 C 232.681946 571.758667 238.830658 570.825378 242.588242 570.306641 C 246.34581 569.787903 252.494522 569.012573 256.252106 568.583618 C 260.009674 568.154724 267.097778 567.470093 272.00351 567.062195 C 276.90921 566.654297 285.192932 566.102112 290.411743 565.835083 C 295.945587 565.55188 309.234253 565.351379 322.294098 565.354004 C 338.525543 565.3573 348.238708 565.543152 357.592407 566.029175 C 364.690002 566.398071 374.760468 567.030029 379.971039 567.433533 C 385.181732 567.837097 389.68399 568.258972 389.976074 568.371033 C 390.268158 568.483093 392.239014 568.651978 394.355743 568.746338 C 396.472565 568.840637 403.413818 569.516479 409.780762 570.248169 C 416.147705 570.979858 426.395599 572.174683 432.553864 572.903381 C 438.712128 573.63208 446.855347 574.491638 450.649963 574.813416 C 455.355804 575.212524 462.252228 575.39856 472.341583 575.39856 C 485.424072 575.39856 487.653748 575.310242 491.631348 574.634399 C 494.104919 574.214111 498.186035 573.282532 500.70047 572.564209 C 503.214996 571.845886 507.484955 570.374329 510.18927 569.294067 C 512.893677 568.213867 516.577209 566.593628 518.374939 565.693604 C 520.172607 564.793518 523.332458 563.083984 525.396606 561.894531 C 527.460876 560.705078 531.370178 558.231995 534.083984 556.398743 C 536.797729 554.565552 543.03186 550.037476 547.937622 546.336487 C 552.843323 542.635498 560.187622 536.945801 564.258301 533.692749 C 568.329041 530.439636 573.704102 525.981689 576.203064 523.786133 C 578.701965 521.590576 582.654358 517.88147 584.986084 515.543701 C 587.317871 513.205933 590.613831 509.630066 592.310608 507.597321 C 594.007263 505.564575 596.43042 502.390381 597.695374 500.543457 C 598.960327 498.696594 600.735901 495.782104 601.641113 494.066895 C 602.546265 492.351654 603.817993 489.428711 604.467163 487.571472 C 605.369568 484.989685 605.738647 483.071777 606.03479 479.425385 C 606.303528 476.115479 606.299133 473.864136 606.020447 472.067841 C 605.799622 470.644257 605.110535 467.90509 604.489441 465.980713 C 603.868225 464.056396 602.578857 461.119843 601.624329 459.455078 C 600.669739 457.790283 598.946716 455.119873 597.795349 453.520813 C 596.644043 451.921692 594.220886 449.011963 592.410461 447.054688 C 590.600098 445.097443 587.494873 441.960724 585.509827 440.084198 C 583.524658 438.207703 579.852539 434.961945 577.349426 432.871368 C 574.846313 430.780823 565.197754 423.354156 555.908203 416.367645 C 546.618652 409.381134 536.541626 401.677887 533.514648 399.24939 C 530.487671 396.820862 525.79071 393.00354 523.076965 390.766541 C 520.36322 388.52948 515.239258 384.764343 511.690399 382.399567 C 508.141571 380.03479 502.249054 376.395538 498.595886 374.312347 C 494.942688 372.229156 486.402771 367.586456 479.618286 363.995209 C 472.833801 360.403961 464.123108 355.752106 460.261169 353.657776 C 456.3992 351.563416 451.275238 348.660797 448.874603 347.20752 C 446.473969 345.754242 441.870514 342.829346 438.644684 340.707733 C 435.418854 338.586121 431.148895 335.630249 429.155884 334.139069 C 427.162872 332.647888 423.040161 329.306702 419.994293 326.714172 C 416.948425 324.121643 413.35379 320.815521 412.006195 319.367249 C 410.658569 317.918976 408.453278 315.453064 407.10556 313.88739 C 405.757874 312.321747 403.528839 309.588989 402.15213 307.814575 C 400.775513 306.040192 398.423767 302.752625 396.926147 300.508911 C 395.428497 298.265167 393.00415 294.336792 391.538849 291.779205 C 390.073456 289.221588 387.998535 285.335632 386.927704 283.143707 C 385.856964 280.951782 384.309845 277.621216 383.489685 275.742462 C 382.669525 273.863678 381.237854 270.287598 380.308167 267.795624 C 379.37854 265.30368 378.111267 261.727448 377.492096 259.84845 C 376.872833 257.969452 375.860199 254.713562 375.241669 252.61319 C 374.623138 250.512787 373.59964 246.659302 372.967316 244.049896 C 372.334869 241.44046 371.397583 236.914307 370.884399 233.99176 C 370.371155 231.069244 369.775238 226.909271 369.560059 224.747406 C 369.344788 222.585571 369.168823 216.778442 369.168915 211.842651 C 369.169098 206.90686 369.338776 199.708771 369.546082 195.846802 C 369.753357 191.984863 370.094269 186.519348 370.303589 183.701172 C 370.512909 180.882996 371.042297 176.186035 371.480072 173.263489 C 371.917694 170.340942 372.949799 165.302429 373.77359 162.066711 C 374.59726 158.831055 375.922729 154.304871 376.718994 152.008606 C 377.515259 149.71228 379.209808 145.094604 380.484772 141.74707 C 381.759735 138.399475 384.18985 132.165405 385.88504 127.893433 C 387.580322 123.62146 390.433075 116.368652 392.224548 111.776123 C 394.016022 107.183533 396.149536 101.54718 396.965729 99.250916 C 397.781799 96.95459 399.121735 92.855469 399.943115 90.141663 C 400.764557 87.427856 401.866425 83.178345 402.391754 80.698242 C 402.928375 78.164368 403.521149 73.591797 403.74472 70.260559 C 404.026611 66.060486 404.023193 63.336243 403.73288 60.916199 C 403.507507 59.037415 402.990173 56.219238 402.583374 54.653564 C 402.039063 52.559387 401.552216 51.544983 400.741302 50.815918 C 400.13501 50.270874 398.547668 49.446716 397.213776 48.984375 C 395.419159 48.362366 393.527039 48.087646 389.937439 47.927673 C 387.269348 47.808838 383.255615 47.899414 381.017975 48.129028 C 378.780304 48.358643 374.985352 49.045166 372.584717 49.654663 C 370.184052 50.26416 366.426453 51.440308 364.234558 52.268311 C 362.042694 53.096313 358.121429 54.841797 355.520813 56.147278 C 352.920197 57.452698 349.21817 59.510132 347.294189 60.719421 C 345.370209 61.92865 342.462463 63.919434 340.832611 65.143311 C 339.202789 66.367188 335.494537 69.674316 332.592133 72.492493 C 329.689697 75.310669 325.320221 80.007629 322.882141 82.930176 C 320.444061 85.852722 315.309357 92.172241 311.471741 96.973572 C 307.634094 101.774902 302.350433 108.28479 299.730286 111.440002 C 296.956024 114.780823 289.993011 122.151855 283.058228 129.089172 C 276.508728 135.640991 264.89444 147.381531 257.248688 155.179199 C 249.602951 162.976929 235.661423 176.880005 226.267517 186.075134 C 216.873611 195.270172 204.319946 207.315002 198.370453 212.8414 C 192.420975 218.367767 183.902924 226.402863 179.441437 230.697144 C 174.979935 234.991486 169.406754 240.591766 167.05661 243.142303 C 164.706421 245.69281 160.841583 250.113525 158.46814 252.966064 C 156.094635 255.818634 152.268646 260.783691 149.965942 263.999603 C 147.663239 267.215515 144.261078 272.278198 142.405579 275.25 C 140.550125 278.221832 137.651031 283.13678 135.963257 286.17215 C 134.275421 289.20752 131.641266 294.398926 130.109528 297.708557 C 128.577789 301.018219 126.077904 306.82373 124.554276 310.60965 C 123.030647 314.395569 120.507545 321.165314 118.947411 325.653503 C 117.387268 330.141724 114.726654 338.340027 113.034889 343.871979 C 111.34317 349.403961 107.893196 361.103638 105.368332 369.871277 C 102.843422 378.638916 99.492279 390.167816 97.921249 395.491028 C 96.350227 400.81424 93.692162 409.354156 92.014427 414.468628 C 90.336655 419.583069 87.555115 427.525208 85.833183 432.117767 C 84.111259 436.710327 80.994408 444.567047 78.906876 449.577148 C 76.819344 454.587219 73.10463 463.383362 70.651955 469.124084 C 68.199318 474.864777 64.61364 483.490112 62.683773 488.291443 C 60.753952 493.092773 58.133926 499.947327 56.861511 503.523834 C 55.589092 507.100342 53.789604 512.651306 52.862686 515.859253 C 51.935768 519.067261 50.737671 523.660156 50.200218 526.065735 C 49.662815 528.471313 48.871277 532.485107 48.441223 534.985229 C 48.011173 537.485352 47.468067 541.751282 47.234367 544.465088 C 46.98209 547.394531 46.901009 552.560547 47.034771 557.180054 C 47.18549 562.382813 47.520191 566.469971 48.044994 569.515503 C 48.476715 572.020508 49.338722 576.060425 49.960636 578.493042 C 50.58255 580.925659 51.698177 584.597839 52.43977 586.653442 C 53.181358 588.708984 54.53912 591.939148 55.457001 593.831482 C 56.37484 595.723816 57.992798 598.568298 59.052364 600.152527 C 60.111977 601.736816 62.182972 604.249023 63.654613 605.735352 C 65.126259 607.22168 66.96096 608.832703 67.731689 609.315491 C 68.502472 609.798279 69.932648 610.496094 70.909882 610.866211 C 71.887115 611.236328 74.363655 611.663147 76.413383 611.814636 C 78.463066 611.966187 82.01886 612.026489 84.315163 611.94873 Z M 205.771713 559.631531 C 202.849182 559.719971 199.347794 559.646973 197.990906 559.469421 C 196.634033 559.29187 193.90123 558.868286 191.918076 558.528137 C 189.934937 558.187988 187.385651 557.646606 186.253067 557.325134 C 185.120483 557.003601 182.532196 555.906738 180.501373 554.887573 C 178.47049 553.868469 175.383392 552.064087 173.641129 550.87793 C 171.898911 549.691711 168.986191 547.449341 167.168457 545.894897 C 165.350754 544.340454 162.617996 541.618286 161.095627 539.845581 C 159.573288 538.072937 157.548492 535.455078 156.5961 534.028198 C 155.643692 532.601318 154.074707 529.839722 153.109467 527.891357 C 152.144241 525.942993 150.909256 522.982422 150.365036 521.312439 C 149.820831 519.642395 149.169449 517.080444 148.917496 515.619141 C 148.662292 514.13916 148.461258 509.599792 148.463531 505.371246 C 148.467514 498.095856 148.51741 497.58783 149.663208 493.153076 C 150.320709 490.608154 151.736191 486.338196 152.808731 483.664276 C 153.881226 480.990356 156.091492 476.240662 157.720428 473.109375 C 159.349319 469.978058 162.196014 464.5979 164.046371 461.153473 C 165.896683 457.709045 167.970139 453.26828 168.653946 451.285126 C 169.683731 448.298767 169.897873 447.114136 169.900696 444.388489 C 169.902557 442.578461 169.483994 438.650116 168.970535 435.658783 C 168.457092 432.66745 167.422256 427.487244 166.670898 424.147186 C 165.919571 420.807129 164.722443 415.277344 164.010605 411.858765 C 163.298752 408.440186 162.412109 403.145447 162.040237 400.092682 C 161.668427 397.039886 161.364166 391.980164 161.364166 388.848877 C 161.364166 385.141815 161.608704 381.632843 162.065125 378.790741 C 162.450607 376.390076 163.336334 372.547119 164.033356 370.250824 C 164.730377 367.954559 166.011169 364.367798 166.879623 362.280243 C 167.748016 360.192719 169.411011 356.776764 170.575104 354.689209 C 171.739243 352.601685 173.834976 349.18573 175.2323 347.098175 C 176.629639 345.010651 179.878571 340.569885 182.452179 337.229828 C 185.025772 333.889771 188.726456 329.069183 190.675919 326.517395 C 192.625381 323.965607 195.054565 320.532806 196.074158 318.888947 C 197.093689 317.245087 199.031158 313.696564 200.379654 311.003357 C 201.728134 308.31015 203.953232 303.288422 205.324295 299.843994 C 206.695343 296.399567 209.511826 288.969818 211.583054 283.333496 C 213.654327 277.697144 217.495895 267.449249 220.119858 260.560394 C 222.74382 253.671509 227.563507 240.861633 230.830292 232.093994 C 234.097015 223.326385 238.547302 211.672852 240.719803 206.197327 C 242.892319 200.721832 245.888702 193.462891 247.378448 190.066376 C 248.868164 186.669861 250.819443 182.35376 251.714615 180.474976 C 252.609848 178.596191 254.48259 175.180237 255.876297 172.883911 C 257.27002 170.587646 259.803497 166.575806 261.506287 163.96875 C 263.209076 161.361633 265.813812 157.604065 267.294586 155.618591 C 268.775421 153.633057 272.122437 149.531982 274.732452 146.505066 C 277.342438 143.478149 281.363159 139.196167 283.667358 136.989563 C 285.971588 134.782959 290.05426 131.315063 292.740021 129.283081 C 295.425812 127.251099 298.989624 124.914734 300.659637 124.091187 C 302.444763 123.210876 305.885803 122.030579 309.009796 121.227112 C 313.654938 120.032288 314.920441 119.856323 319.067902 119.828247 C 322.768738 119.803223 324.56366 119.981201 327.228271 120.637634 C 329.107025 121.100464 332.20874 122.238586 334.12085 123.166687 C 336.03302 124.094849 338.945435 125.869995 340.592926 127.111389 C 342.240448 128.352844 344.775116 130.619873 346.225586 132.149292 C 347.675964 133.67865 349.95755 136.381531 351.295624 138.155579 C 352.71402 140.036072 354.808502 143.596924 356.318481 146.694885 C 357.742981 149.617371 359.331238 153.223694 359.848053 154.708801 C 360.364746 156.193909 360.97818 158.585083 361.211121 160.022522 C 361.444092 161.459961 361.78656 166.222778 361.972351 170.606628 C 362.158051 174.990479 362.312439 181.224548 362.315399 184.460266 C 362.318359 187.695923 362.071136 193.546021 361.766083 197.460419 C 361.460938 201.374817 360.869202 209.146149 360.45108 214.730011 C 360.032898 220.313904 359.41864 227.444489 359.08606 230.575806 C 358.753387 233.707092 358.381714 239.941254 358.259857 244.429443 C 358.123291 249.464722 358.216583 254.988129 358.503479 258.852417 C 358.759247 262.296814 359.302429 268.103973 359.710632 271.757172 C 360.118805 275.410339 360.891235 281.046692 361.427307 284.282379 C 361.963287 287.518066 362.896484 291.702606 363.501129 293.58139 C 364.105774 295.460175 365.37619 298.363739 366.324219 300.033752 C 367.272278 301.703796 369.623901 305.233582 371.549927 307.877716 C 373.475952 310.521881 376.674347 314.788391 378.657532 317.358887 C 380.640717 319.929321 384.41391 324.512482 387.042511 327.54361 C 389.671112 330.574768 394.53894 335.790009 397.859741 339.133118 C 401.180634 342.476227 406.808014 347.856384 410.364929 351.08902 C 413.921936 354.321655 420.326874 359.965759 424.598114 363.6315 C 428.869476 367.297241 436.292511 373.613586 441.093781 377.667816 C 445.895081 381.722046 453.239441 388.029846 457.41452 391.68512 C 461.5896 395.340393 469.966309 403.285736 476.02951 409.34137 C 482.092712 415.397034 488.546021 422.039581 490.370178 424.1026 C 492.194366 426.165619 496.042145 430.777161 498.920746 434.350494 C 501.799469 437.923828 506.323029 443.665619 508.973328 447.110046 C 511.623596 450.554504 514.909668 455.029144 516.275696 457.053772 C 517.641663 459.078369 519.678345 462.49472 520.801575 464.64563 C 521.924866 466.79657 523.434937 470.093201 524.157227 471.971527 C 524.879578 473.849854 525.871338 477.174377 526.361267 479.359314 C 527.099792 482.653076 527.252014 484.404358 527.252014 489.607239 C 527.252014 495.103546 527.128906 496.377136 526.260132 499.867737 C 525.714661 502.059662 524.722412 505.219421 524.055115 506.889465 C 523.387878 508.559479 522.05719 511.327332 521.098145 513.040222 C 520.13916 514.753113 518.289856 517.571289 516.98877 519.302856 C 515.687683 521.034363 512.853088 524.221924 510.689636 526.386353 C 508.526306 528.550781 504.877472 531.722229 502.581177 533.434021 C 500.284851 535.145874 496.855835 537.513367 494.961121 538.695251 C 493.066437 539.877075 489.385712 541.931824 486.781952 543.261292 C 484.178192 544.590759 480.190948 546.395691 477.921509 547.272339 C 475.652191 548.148865 472.15921 549.293579 470.159515 549.816101 C 468.107758 550.352173 464.291382 550.94989 461.399811 551.187988 C 458.281006 551.444824 452.636841 551.519836 446.976837 551.3797 C 441.862335 551.253052 434.091095 550.802002 429.707245 550.377319 C 425.323395 549.952637 419.089233 549.156189 415.853607 548.607422 C 412.61795 548.058655 407.323151 547.043274 404.087494 546.350952 C 400.851868 545.658691 395.215485 544.40387 391.562286 543.5625 C 387.909119 542.721069 382.528931 541.59082 379.606415 541.050842 C 376.683868 540.510864 372.362579 539.923767 370.003632 539.746216 C 367.644592 539.568726 363.289215 539.566528 360.325073 539.741333 C 357.36084 539.916199 350.665588 540.66394 345.446747 541.402954 C 340.227905 542.142029 332.11499 543.263123 327.41806 543.894348 C 322.7211 544.525513 314.778961 545.631287 309.76889 546.351563 C 304.75882 547.071838 297.072906 548.016113 292.689056 548.44989 C 288.305237 548.883728 281.814911 549.654785 278.266113 550.16333 C 274.717285 550.671997 269.636017 551.340454 266.974426 551.648926 C 264.312836 551.957397 259.615906 552.561829 256.536774 552.992065 C 253.457626 553.422302 246.839203 554.28772 241.829132 554.915161 C 236.819061 555.542603 230.542572 556.396484 227.881348 556.812744 C 225.220184 557.228882 220.352448 557.997253 217.064117 558.520142 C 213.679428 559.05835 208.779968 559.540527 205.771713 559.631531 Z M 214.31163 515.947998 C 218.382309 515.85498 223.420868 515.611267 225.508408 515.406494 C 227.595947 515.201721 233.488495 514.451538 238.602951 513.73938 C 243.717392 513.027222 254.56311 511.404419 262.704468 510.133118 C 270.845856 508.861816 283.314148 506.795746 290.411743 505.54187 C 297.509338 504.287964 308.95285 502.162415 315.841736 500.818481 C 322.730591 499.474518 333.661652 497.392761 340.133026 496.192322 C 351.899139 494.009766 351.899139 494.009766 363.475464 493.997253 C 372.633362 493.987305 376.095276 494.128845 380.046661 494.674591 C 382.793854 495.054016 387.917816 495.934967 391.433197 496.632233 C 394.948608 497.329498 401.240875 498.697449 405.415924 499.672089 C 409.591003 500.646729 415.48349 501.926697 418.510468 502.516418 C 421.537415 503.10614 426.405151 503.855591 429.327698 504.181824 C 432.250214 504.508057 436.776398 504.945496 439.385803 505.15387 C 441.995239 505.362244 446.265198 505.639954 448.874603 505.770935 C 451.484009 505.901947 454.927124 505.84137 456.526062 505.636353 C 458.317444 505.406647 460.606049 504.75647 462.489441 503.9422 C 464.170471 503.215393 467.166473 501.723022 469.147156 500.625732 C 471.127869 499.528442 474.087555 497.559265 475.724274 496.249756 C 477.360992 494.940186 479.348358 493.040833 480.140747 492.028992 C 481.386963 490.437439 481.555511 489.991821 481.38974 488.726624 C 481.284119 487.919922 480.398621 485.962646 479.41507 484.361755 C 478.434326 482.765503 476.085388 479.409912 474.195221 476.904877 C 472.305054 474.399841 468.173828 469.105103 465.01474 465.138763 C 461.85553 461.172455 457.29776 455.792297 454.886169 453.182892 C 452.474609 450.573486 447.274567 445.213715 443.330597 441.272308 C 439.386536 437.330902 432.662292 431.011353 428.387787 427.228882 C 424.113312 423.446411 417.793701 417.703766 414.344391 414.467468 C 410.894958 411.231171 404.059052 405.169189 399.15332 400.996429 C 394.247589 396.823639 387.757324 391.207001 384.730347 388.514984 C 381.7034 385.822937 375.600006 380.197388 371.167145 376.013672 C 366.734375 371.829987 359.88382 365.035858 355.943817 360.915619 C 352.003754 356.795349 347.166138 351.403076 345.193512 348.93277 C 343.220825 346.462494 339.809418 342.05014 337.612518 339.127594 C 335.41568 336.205048 332.496033 332.191284 331.124481 330.20813 C 329.752869 328.224976 327.742188 325.065216 326.656311 323.186432 C 325.570465 321.307648 323.849884 317.92807 322.832855 315.67627 C 321.815857 313.424469 320.383087 309.685303 319.649017 307.366974 C 318.914917 305.048676 317.807922 300.656921 317.189056 297.607513 C 316.57016 294.558136 315.726593 289.586609 315.314362 286.559692 C 314.902191 283.532776 314.29538 278.408813 313.965881 275.173126 C 313.636414 271.937439 313.112396 266.16272 312.801422 262.340363 C 312.490448 258.518036 312.235992 252.20816 312.235992 248.318451 C 312.235992 244.428711 312.418854 238.845367 312.642303 235.91098 C 312.865814 232.976624 313.887909 225.62262 314.913605 219.568787 C 315.939331 213.514954 317.111542 206.683044 317.518463 204.386719 C 317.925415 202.090424 318.525909 198.169159 318.852936 195.672791 C 319.179901 193.176422 319.447449 188.708008 319.447449 185.742981 C 319.447449 182.598572 319.220032 179.191284 318.901672 177.566833 C 318.601501 176.035034 317.918274 173.513367 317.383362 171.963196 C 316.84848 170.412964 316.150757 168.747681 315.832886 168.262573 C 315.450317 167.67865 314.886688 167.380432 314.165894 167.380432 C 313.322235 167.380432 312.602142 167.893127 310.970337 169.655762 C 309.811707 170.907166 307.761047 173.59729 306.4133 175.633667 C 305.065491 177.670105 303.076019 180.873535 301.992157 182.752258 C 300.908325 184.631042 297.997223 190.267426 295.523132 195.277496 C 293.049011 200.287567 289.501648 208.058899 287.640137 212.547089 C 285.778595 217.035278 282.447693 225.404419 280.23819 231.145142 C 278.028687 236.885834 274.2659 246.877533 271.876404 253.348907 C 269.486938 259.820282 265.190643 271.178345 262.329102 278.589081 C 259.467529 285.999847 255.759125 295.82074 254.088165 300.41333 C 252.417252 305.00589 249.770767 312.008606 248.207153 315.974945 C 246.643494 319.941254 244.041122 325.930145 242.424042 329.28363 C 240.807007 332.637085 238.522141 337.094452 237.346603 339.188904 C 236.171112 341.283325 233.722092 345.115326 231.904358 347.704437 C 230.086655 350.293549 226.004761 355.742493 222.833481 359.813171 C 219.662231 363.88385 216.027267 368.666199 214.755768 370.440613 C 213.484283 372.215027 211.740204 374.895477 210.880096 376.397186 C 210.019989 377.898895 208.871323 380.375488 208.327576 381.900696 C 207.566849 384.034332 207.305679 385.592834 207.194809 388.659088 C 207.084946 391.699249 207.271393 393.904602 207.98111 397.958099 C 208.492798 400.880676 209.965652 408.054169 211.254089 413.899292 C 212.542542 419.744385 214.015945 427.174103 214.528275 430.40979 C 215.040665 433.645477 215.570526 438.659485 215.705719 441.552094 C 215.862915 444.914856 215.779892 448.336548 215.475494 451.040894 C 215.213623 453.367126 214.432281 457.490784 213.739151 460.20459 C 213.046021 462.918396 211.640366 467.200867 210.615448 469.72113 C 209.590546 472.241455 207.151398 477.365387 205.195114 481.107697 C 203.238846 484.849976 200.144562 490.864838 198.318939 494.47403 C 196.038055 498.983276 194.804611 501.912933 194.376129 503.838806 C 193.801239 506.422729 193.800461 506.74234 194.366028 507.934143 C 194.703415 508.645142 195.614304 509.829376 196.390274 510.565796 C 197.166245 511.302246 198.569733 512.418213 199.509109 513.045776 C 200.448502 513.67334 201.910172 514.538574 202.757263 514.968384 C 203.604355 515.398254 204.885345 515.832581 205.603897 515.933594 C 206.322464 516.034607 210.240952 516.041077 214.31163 515.947998 Z M 356.653442 481.982544 C 355.082336 481.957092 352.795105 481.789978 351.57074 481.611176 C 350.346283 481.432373 347.784302 480.870056 345.877472 480.361511 C 343.97052 479.853027 341.043976 478.93158 339.373932 478.313904 C 337.703888 477.696228 334.544128 476.462128 332.352234 475.571472 C 330.160309 474.680817 327.145996 473.55658 325.653778 473.073151 C 323.70459 472.44165 321.299896 472.081909 317.113861 471.795502 C 313.909119 471.576202 309.579132 471.218506 307.491577 471.000641 C 305.404053 470.782745 302.073486 470.171417 300.090332 469.642151 C 298.107178 469.112854 295.079346 468.024078 293.361847 467.222595 C 291.644318 466.421143 288.920135 464.855774 287.308075 463.74408 C 285.695984 462.632385 283.382629 460.80426 282.167267 459.68158 C 280.951874 458.558929 278.940186 456.290344 277.696869 454.640289 C 276.453491 452.990234 274.845306 450.40741 274.123077 448.900696 C 273.400879 447.393982 272.44989 444.880188 272.009888 443.314545 C 271.560974 441.717255 271.114746 438.718842 270.993225 436.482605 C 270.823059 433.352173 270.948883 431.544525 271.579834 428.055389 C 272.021606 425.612335 272.382019 422.879578 272.380829 421.982574 C 272.379425 420.947083 271.471741 417.788239 269.894592 413.329956 C 268.528412 409.468018 266.813568 404.258789 266.083832 401.753876 C 265.354156 399.248932 264.551514 396.003754 264.30014 394.542389 C 264.048798 393.080963 263.84314 389.152496 263.84314 385.812469 C 263.84314 380.153656 263.919037 379.498108 264.956543 376.196747 C 265.568939 374.248138 266.813293 371.384033 267.721771 369.832092 C 268.630249 368.280121 270.502167 365.813934 271.881592 364.351715 C 273.260986 362.889465 275.62088 360.869537 277.125824 359.863007 C 278.630737 358.856445 281.207916 357.472626 282.852814 356.787811 C 284.497803 356.103027 287.383881 355.220947 289.266388 354.827667 C 291.148865 354.434387 294.824036 354.005737 297.433472 353.875122 C 300.180542 353.73761 304.095306 353.824554 306.732483 354.081696 C 309.237518 354.325928 313.344879 354.940857 315.859985 355.448151 C 318.375061 355.955475 322.527557 356.97348 325.08783 357.710419 C 327.648041 358.447327 331.568176 359.759186 333.799255 360.625671 C 336.030334 361.492157 339.326996 362.934845 341.125183 363.831665 C 342.923431 364.728485 345.954193 366.397919 347.860199 367.541565 C 349.766296 368.685181 353.470062 371.190857 356.090973 373.109741 C 358.711792 375.028625 362.769165 378.151062 365.107361 380.048523 C 367.445465 381.945984 371.151947 385.066589 373.343811 386.983185 C 375.535675 388.899811 379.039398 392.238647 381.12973 394.402802 C 383.220123 396.566986 385.994476 399.670135 387.295013 401.298706 C 388.595642 402.927277 390.774078 406.137054 392.135986 408.431488 C 393.497955 410.725952 395.363922 414.005005 396.282593 415.718323 C 397.354248 417.71701 398.51181 420.805939 399.512482 424.336945 C 400.370178 427.363861 401.280792 431.036041 401.53598 432.497314 C 401.791199 433.958588 401.999969 436.691376 401.999969 438.57016 C 401.999969 440.448944 401.774414 443.315399 401.498657 444.940094 C 401.222961 446.564758 400.606659 449.041382 400.129181 450.443604 C 399.651581 451.845825 398.615692 454.274109 397.827209 455.839752 C 397.038635 457.405396 395.70343 459.711182 394.860016 460.963684 C 394.016693 462.216217 391.43515 465.125244 389.123383 467.428223 C 386.791748 469.750916 383.399048 472.644623 381.504181 473.926788 C 379.625397 475.198059 376.843353 476.863342 375.321808 477.627441 C 373.800354 478.39151 371.067596 479.513977 369.248993 480.121826 C 367.43045 480.729675 364.495239 481.40741 362.726288 481.62793 C 360.957397 481.848419 358.22467 482.007996 356.653442 481.982544 Z M 353.758148 434.483215 C 354.154297 434.434753 354.653564 434.115631 354.867615 433.774078 C 355.159607 433.307983 354.988281 432.597992 354.180328 430.92746 C 353.367676 429.247223 351.840118 427.442871 347.94693 423.564606 C 345.110565 420.739136 341.081909 417.135193 338.994385 415.555878 C 336.90683 413.976532 333.748749 411.777985 331.97641 410.670166 C 330.204132 409.562347 326.721588 407.63855 324.237488 406.395111 C 321.753418 405.151642 319.10437 404.055298 318.350677 403.958801 C 317.538269 403.854797 316.712494 403.988281 316.322327 404.286682 C 315.704407 404.759338 315.746429 405.114197 317.011414 410.10376 C 318.01062 414.044922 318.430603 416.667542 318.637451 420.256866 C 318.790802 422.918518 319.078522 425.252777 319.276764 425.444122 C 319.475037 425.635406 322.113831 426.066956 325.140747 426.403076 C 328.167664 426.739166 332.395721 427.445862 334.536407 427.973419 C 336.677094 428.501007 340.178436 429.589142 342.3172 430.391479 C 344.455933 431.193848 347.743073 432.462555 349.621826 433.210815 C 351.50058 433.959076 353.361938 434.531647 353.758148 434.483215 Z"/>
        <path id="TopoKit" fill="#ffffff" fill-rule="evenodd" stroke="none" d="M 1893.373535 241.023895 C 1873.040405 233.05011 1851.511475 229.063293 1828.786255 229.063293 C 1798.884521 229.063293 1771.375366 236.040253 1746.257935 249.994354 C 1721.140503 263.948486 1701.00708 283.085297 1685.856812 307.405334 C 1670.706665 331.725403 1663.131714 359.633209 1663.131714 391.129669 C 1663.131714 415.449707 1667.517212 437.776001 1676.28833 458.109131 C 1685.059448 478.442291 1697.119629 496.084045 1712.469238 511.034882 C 1727.818726 525.985718 1745.460449 537.547546 1765.394897 545.720703 C 1785.329468 553.893799 1806.459595 557.980347 1828.786255 557.980347 C 1851.511475 557.980347 1873.040405 553.893799 1893.373535 545.720703 C 1913.706787 537.547546 1931.547852 525.985718 1946.897339 511.034882 C 1962.246948 496.084045 1974.406738 478.442291 1983.377197 458.109131 C 1992.347778 437.776001 1996.832886 415.449707 1996.832886 391.129669 C 1996.832886 367.606995 1992.347778 345.978424 1983.377197 326.243317 C 1974.406738 306.508209 1962.246948 289.364807 1946.897339 274.812653 C 1931.547852 260.260498 1913.706787 248.997681 1893.373535 241.023895 Z M 2577.520996 272.719543 L 2613.402832 272.719543 L 2613.402832 485.020538 C 2613.402832 508.144531 2620.280029 526.085266 2634.034912 538.843323 C 2647.789795 551.601379 2667.823486 557.980347 2694.136963 557.980347 C 2735.999512 557.980347 2762.711182 542.830322 2774.273193 512.529968 L 2759.32251 501.167358 C 2752.943359 511.134583 2746.165771 518.211243 2738.989258 522.397461 C 2731.812988 526.58374 2723.241211 528.676758 2713.273926 528.676758 C 2697.326416 528.676758 2686.462402 523.294556 2680.681396 512.529968 C 2674.900391 501.76535 2672.009766 482.429199 2672.009766 454.520966 L 2672.009766 272.719543 L 2752.145996 272.719543 L 2752.145996 244.612091 L 2672.009766 244.612091 L 2672.009766 169.260193 L 2654.666992 169.260193 C 2648.287842 186.403809 2639.118164 201.05545 2627.157471 213.215454 C 2615.196777 225.375488 2598.651611 237.834351 2577.520996 250.592407 L 2577.520996 272.719543 Z M 1994.440796 552 L 1994.440796 529.274841 C 2013.179199 529.274841 2027.232788 527.480713 2036.602051 523.892578 C 2045.971191 520.304321 2052.250488 513.626404 2055.439941 503.858521 C 2058.629395 494.090637 2060.224121 479.837708 2060.224121 461.099304 L 2060.224121 182.41687 C 2060.224121 162.08374 2058.529785 147.033447 2055.141113 137.265564 C 2051.751953 127.49762 2045.771851 121.218384 2037.200073 118.427551 C 2028.628174 115.636719 2016.368652 114.241333 2000.421143 114.241333 L 2000.421143 91.516174 L 2182.222656 91.516174 L 2182.222656 114.241333 C 2166.274902 114.241333 2154.015625 115.83606 2145.443604 119.025574 C 2136.871826 122.215088 2130.991211 128.992737 2127.801758 139.358643 C 2124.612305 149.724548 2123.017578 165.472534 2123.017578 186.603088 L 2123.017578 334.316742 L 2272.525146 154.309387 C 2280.499023 144.342163 2284.48584 136.567871 2284.48584 130.986206 C 2284.48584 125.404541 2281.695068 121.218384 2276.113281 118.427551 C 2270.531738 115.636719 2261.959961 114.241333 2250.397949 114.241333 L 2250.397949 91.516174 L 2394.523438 91.516174 L 2394.523438 113.643311 C 2384.157715 113.643311 2375.087402 114.640015 2367.312988 116.633484 C 2359.538574 118.626892 2351.76416 122.81311 2343.989746 129.192139 C 2336.215332 135.571167 2326.746582 145.338867 2315.583496 158.495605 L 2203.153564 288.268341 L 2377.778809 498.177216 C 2387.74585 509.739197 2397.11499 517.812561 2405.88623 522.397461 C 2412.789795 526.006165 2421.545654 528.194702 2432.154053 528.963013 C 2438.805176 527.794739 2444.302002 526.204224 2448.645264 524.191528 C 2456.818359 520.403992 2462.300293 513.626404 2465.091309 503.858521 C 2467.881836 494.090637 2469.277344 479.837708 2469.277344 461.099304 L 2469.277344 384.551331 C 2469.277344 361.427368 2468.978516 342.290558 2468.380371 327.14035 C 2467.782227 311.990173 2466.686035 301.82373 2465.091309 296.640778 C 2463.496582 287.470917 2459.01123 281.191681 2451.635498 277.802795 C 2444.259766 274.41394 2430.60498 272.719543 2410.67041 272.719543 L 2410.67041 251.788452 L 2527.884277 229.063293 L 2527.884277 456.913086 C 2527.884277 477.246216 2529.279785 492.69519 2532.070801 503.260498 C 2534.861328 513.825745 2540.243652 520.902344 2548.217529 524.490601 C 2556.191406 528.078796 2567.952393 530.271545 2583.501465 531.068909 L 2583.501465 552 L 2257.574463 552 L 2257.574463 529.274841 C 2273.123291 529.274841 2284.286621 527.979126 2291.064209 525.387634 C 2297.841797 522.796143 2301.230713 518.709656 2301.230713 513.127991 C 2301.230713 509.938477 2299.635986 505.353638 2296.446289 499.373291 C 2293.256836 493.392944 2288.074219 486.017273 2280.897461 477.246124 L 2164.281738 333.718689 L 2123.017578 381.561188 L 2123.017578 456.913086 C 2123.017578 477.246216 2124.612305 492.59552 2127.801758 502.961456 C 2130.991211 513.327393 2137.270508 520.304321 2146.639648 523.892578 C 2156.008789 527.480713 2169.863281 529.274841 2188.202881 529.274841 L 2188.202881 552 L 1994.440796 552 Z M 1777.355591 274.513641 C 1792.107056 263.350342 1809.250488 257.768768 1828.786255 257.768768 C 1849.119385 257.768768 1866.761108 263.450012 1881.712036 274.812653 C 1896.662842 286.175293 1908.324341 301.823608 1916.696777 321.758087 C 1925.069214 341.692535 1929.255493 365.015533 1929.255493 391.727692 C 1929.255493 432.792694 1920.185425 465.684082 1902.045044 490.402832 C 1883.904663 515.121582 1859.485352 527.480713 1828.786255 527.480713 C 1798.884521 527.480713 1775.063232 515.121582 1757.321533 490.402832 C 1739.579834 465.684082 1730.709106 432.792694 1730.709106 391.727692 C 1730.709106 365.015533 1734.795654 341.592865 1742.96875 321.459076 C 1751.141968 301.325256 1762.604126 285.676941 1777.355591 274.513641 Z M 2469.875488 81.34967 C 2462.698975 88.526062 2459.11084 97.297058 2459.11084 107.663025 C 2459.11084 118.028931 2462.698975 126.799988 2469.875488 133.976379 C 2477.051758 141.152771 2485.822754 144.740906 2496.188721 144.740906 C 2506.554688 144.740906 2515.325684 141.152771 2522.502197 133.976379 C 2529.678711 126.799988 2533.266602 118.028931 2533.266602 107.663025 C 2533.266602 97.297058 2529.678711 88.526062 2522.502197 81.34967 C 2515.325684 74.173218 2506.554688 70.585083 2496.188721 70.585083 C 2485.822754 70.585083 2477.051758 74.173218 2469.875488 81.34967 Z M 1282.186035 701.507751 L 1282.186035 680.57666 C 1298.133545 679.779297 1310.193604 677.586548 1318.366821 673.998291 C 1326.540039 670.410095 1332.121582 663.632507 1335.111694 653.665283 C 1338.101807 643.697998 1339.596924 629.146118 1339.596924 610.009033 L 1339.596924 386.345428 C 1339.596924 363.221436 1339.297852 344.184326 1338.699951 329.233459 C 1338.101807 314.282623 1337.005371 304.215881 1335.410645 299.032898 C 1333.815918 289.464355 1329.330811 282.985748 1321.955078 279.596893 C 1314.579224 276.208038 1300.924316 274.513641 1280.989868 274.513641 L 1280.989868 254.180573 L 1395.811768 231.455414 L 1395.811768 278.101837 L 1398.203979 278.101837 C 1410.962036 262.95163 1424.716553 250.991119 1439.468018 242.219971 C 1454.219604 233.448792 1471.363037 229.063293 1490.898682 229.063293 C 1521.199219 229.063293 1548.010498 236.139923 1571.333984 250.293396 C 1594.657227 264.446869 1613.096313 283.98233 1626.651733 308.900421 C 1640.207153 333.818512 1646.984863 362.22467 1646.984863 394.119843 C 1646.984863 426.413666 1640.107544 454.919525 1626.352783 479.638245 C 1612.598022 504.356995 1593.959595 523.593445 1570.43689 537.348267 C 1546.914185 551.103027 1520.202393 557.980347 1490.300781 557.980347 C 1471.960938 557.980347 1455.315918 554.890503 1440.365112 548.710815 C 1425.414307 542.531128 1412.158081 532.464355 1400.596069 518.510254 L 1398.203979 518.510254 L 1398.203979 605.822754 C 1398.203979 626.953308 1399.798706 642.701294 1402.988281 653.067261 C 1406.177734 663.433167 1412.65625 670.410095 1422.424194 673.998291 C 1432.192139 677.586548 1446.84375 679.779297 1466.379395 680.57666 L 1466.379395 701.507751 L 1282.186035 701.507751 Z M 1115.335327 229.063293 C 1138.060547 229.063293 1159.589478 233.05011 1179.922607 241.023895 C 1200.255859 248.997681 1218.096924 260.260498 1233.446411 274.812653 C 1248.795898 289.364807 1260.955811 306.508209 1269.92627 326.243317 C 1278.896851 345.978424 1283.38208 367.606995 1283.38208 391.129669 C 1283.38208 415.449707 1278.896851 437.776001 1269.92627 458.109131 C 1260.955811 478.442291 1248.795898 496.084045 1233.446411 511.034882 C 1218.096924 525.985718 1200.255859 537.547546 1179.922607 545.720703 C 1159.589478 553.893799 1138.060547 557.980347 1115.335327 557.980347 C 1093.008789 557.980347 1071.878418 553.893799 1051.944092 545.720703 C 1032.009521 537.547546 1014.367798 525.985718 999.018311 511.034882 C 983.668762 496.084045 971.608582 478.442291 962.837402 458.109131 C 954.066284 437.776001 949.680725 415.449707 949.680725 391.129669 C 949.680725 359.633209 957.255737 331.725403 972.405884 307.405334 C 987.556152 283.085297 1007.689575 263.948486 1032.807007 249.994354 C 1057.924438 236.040253 1085.433594 229.063293 1115.335327 229.063293 Z M 1019.052368 205.740082 L 1013.072021 91.516174 L 561.558655 91.516174 L 561.558655 205.740082 L 583.685791 205.740082 C 584.483154 184.609558 587.772339 168.064209 593.553284 156.103516 C 599.33429 144.142822 607.208313 135.371826 617.175537 129.790161 C 627.142761 124.208496 638.70459 120.720032 651.861328 119.324585 C 665.018066 117.929199 679.370667 117.231506 694.919556 117.231506 C 712.063171 117.231506 724.721375 117.829529 732.894531 119.025574 C 741.067627 120.22168 746.549561 122.115417 749.340332 124.706909 C 752.131226 127.29834 753.526611 130.986206 753.526611 135.770447 L 753.526611 455.71701 C 753.526611 472.860657 751.732544 486.714905 748.144287 497.280151 C 744.556091 507.845428 737.280151 515.619751 726.316162 520.603394 C 715.352234 525.586975 698.507874 528.477417 675.782593 529.274841 L 675.782593 552 L 901.838257 552 L 901.838257 529.274841 C 879.511658 528.477417 862.766968 525.586975 851.603638 520.603394 C 840.440369 515.619751 833.164429 507.845428 829.775513 497.280151 C 826.386658 486.714905 824.692261 472.860657 824.692261 455.71701 L 824.692261 135.770447 C 824.692261 130.986206 826.187317 127.29834 829.17749 124.706909 C 832.167664 122.115417 838.546631 120.22168 848.314453 119.025574 C 858.082397 117.829529 872.734009 117.231506 892.269775 117.231506 C 915.393738 117.231506 934.131836 119.822937 948.48468 125.00592 C 962.837524 130.188843 973.701599 139.159241 981.077393 151.917297 C 988.453125 164.675354 992.938293 182.616089 994.533081 205.740082 L 1019.052368 205.740082 Z M 1487.310547 528.676758 C 1514.421387 528.676758 1536.54834 517.01532 1553.692017 493.691986 C 1570.835693 470.368652 1579.407349 437.975647 1579.407349 396.511963 C 1579.407349 369.00238 1575.420532 344.782379 1567.446777 323.851196 C 1559.4729 302.920013 1548.309814 286.673645 1533.957031 275.111664 C 1519.604248 263.549683 1502.859375 257.768768 1483.722412 257.768768 C 1469.369629 257.768768 1456.113281 261.057922 1443.953369 267.636292 C 1431.793213 274.214661 1421.726563 283.484039 1413.752686 295.444733 C 1408.569824 303.418518 1404.682617 312.887238 1402.091064 323.851196 C 1399.499756 334.815155 1398.203979 349.068085 1398.203979 366.610413 L 1398.203979 413.256805 C 1398.203979 434.786041 1399.300293 450.733368 1401.493164 461.099304 C 1403.685913 471.46521 1407.97168 480.634949 1414.35083 488.608704 C 1423.52063 500.968079 1434.584106 510.73584 1447.541504 517.912231 C 1460.498901 525.088623 1473.755127 528.676758 1487.310547 528.676758 Z M 1115.335327 257.768768 C 1095.799561 257.768768 1078.656128 263.350342 1063.904663 274.513641 C 1049.153076 285.676941 1037.69104 301.325256 1029.517822 321.459076 C 1021.344727 341.592865 1017.25824 365.015533 1017.25824 391.727692 C 1017.25824 432.792694 1026.128906 465.684082 1043.870605 490.402832 C 1061.612305 515.121582 1085.433594 527.480713 1115.335327 527.480713 C 1146.034424 527.480713 1170.453735 515.121582 1188.594116 490.402832 C 1206.734375 465.684082 1215.804443 432.792694 1215.804443 391.727692 C 1215.804443 365.015533 1211.618408 341.692535 1203.24585 321.758087 C 1194.873413 301.823608 1183.211914 286.175293 1168.260986 274.812653 C 1153.310181 263.450012 1135.668457 257.768768 1115.335327 257.768768 Z"/>
    </g>
</svg>
