<?xml version="1.0" encoding="UTF-8"?>
<!-- Generated by Pixelmator Pro 3.7.1 -->
<svg width="1731" height="1743" viewBox="0 0 1731 1743" xmlns="http://www.w3.org/2000/svg">
    <g id="Group">
        <linearGradient id="linearGradient1" x1="1081.194644" y1="571.354771" x2="220.137779" y2="1478.727054" gradientUnits="userSpaceOnUse">
            <stop offset="0" stop-color="#ffb000" stop-opacity="1"/>
            <stop offset="1" stop-color="#b75900" stop-opacity="1"/>
        </linearGradient>
        <filter id="filter1" x="0" y="0" width="1731" height="1743" filterUnits="userSpaceOnUse" primitiveUnits="userSpaceOnUse" color-interpolation-filters="sRGB">
            <feGaussianBlur stdDeviation="5"/>
            <feOffset dx="-0" dy="2" result="offsetblur"/>
            <feFlood flood-color="#000000" flood-opacity="0.5"/>
            <feComposite in2="offsetblur" operator="in"/>
            <feMerge>
                <feMergeNode/>
                <feMergeNode in="SourceGraphic"/>
            </feMerge>
        </filter>
        <path id="Shape" fill="url(#linearGradient1)" fill-rule="evenodd" stroke="none" filter="url(#filter1)" d="M 212.5 1732.472656 C 202.050049 1732.703491 190.349976 1732.470459 186.5 1731.954834 C 182.650024 1731.439209 175.053833 1730.080078 169.619507 1728.934448 C 164.185181 1727.78894 155.860229 1725.483276 151.119507 1723.810791 C 146.378784 1722.138428 139.455078 1719.237305 135.733521 1717.364136 C 132.011963 1715.490845 125.946411 1712.109375 122.254517 1709.849731 C 118.562622 1707.590088 112.157593 1703.150879 108.020996 1699.984985 C 103.884399 1696.81897 96.759033 1690.736816 92.186646 1686.468872 C 87.61438 1682.20105 80.145874 1674.161987 75.589966 1668.604492 C 71.034058 1663.046997 64.581421 1654.449951 61.250732 1649.5 C 57.920166 1644.550049 52.956909 1636.566162 50.221436 1631.758179 C 47.485962 1626.950195 42.934448 1617.897827 40.106934 1611.641968 C 37.279297 1605.386108 33.165039 1595.48877 30.963989 1589.647949 C 28.762939 1583.807129 25.440918 1573.734375 23.581787 1567.26416 C 21.722534 1560.793823 19.048218 1550.324951 17.638672 1544 C 16.229126 1537.675049 14.390625 1528.542236 13.552979 1523.705078 C 12.715332 1518.86792 11.370728 1508.517944 10.564941 1500.705078 C 9.759033 1492.892334 8.805542 1479.525024 8.445801 1471 C 8.083984 1462.422974 8.286011 1447.683838 8.898193 1438 C 9.506714 1428.375 10.709351 1414.875 11.570801 1408 C 12.432373 1401.125 14.716064 1387.400024 16.645752 1377.5 C 18.575439 1367.599976 21.724854 1353.512817 23.644409 1346.195068 C 25.563965 1338.877319 28.863647 1327.177368 30.977051 1320.195068 C 33.090454 1313.212769 37.315918 1300.300049 40.366821 1291.5 C 43.417725 1282.699951 48.793579 1268.074951 52.312988 1259 C 55.83252 1249.925049 63.292114 1231.593994 68.889893 1218.264282 C 74.487793 1204.934692 83.600464 1183.334717 89.140381 1170.264282 C 94.680298 1157.193848 103.828247 1135.025024 109.469116 1121 C 115.109985 1106.974976 123.341797 1084.909058 127.762085 1071.9646 C 132.182373 1059.02002 138.746704 1038.77002 142.349487 1026.9646 C 145.952393 1015.159058 153.469604 989.525024 159.054443 970 C 164.639404 950.474976 173.697632 919.200012 179.183716 900.5 C 184.669922 881.799988 192.771606 855.474976 197.187378 842 C 201.603271 828.525024 208.762451 807.965149 213.09668 796.311462 C 217.430908 784.657776 224.001953 768.007751 227.698853 759.311462 C 231.395874 750.615173 239.929321 732.474976 246.662231 719 C 253.395264 705.525024 262.361816 688.650024 266.588135 681.5 C 270.814331 674.349976 277.918579 662.875 282.375244 656 C 286.832031 649.125 294.256714 638.099976 298.874756 631.5 C 303.492676 624.900024 310.896362 614.775024 315.327271 609 C 319.758179 603.224976 326.54248 594.675049 330.403564 590 C 334.264526 585.324951 342.615723 575.651367 348.961792 568.503052 C 355.307739 561.354736 369.070801 546.954712 379.546143 536.503052 C 390.021606 526.051392 416.121582 501.332275 437.546143 481.571655 C 458.970825 461.811035 494.949951 427.367676 517.5 405.03064 C 540.050049 382.693726 579.156372 344.411499 604.403076 319.958984 C 629.64978 295.506592 658.174927 267.176758 667.79248 257.003906 C 677.410034 246.831055 691.669312 230.855957 699.47998 221.503906 C 707.290527 212.151733 725.199585 190.058228 739.277954 172.407227 C 753.356323 154.756226 770.446045 134.056274 777.255127 126.407227 C 784.064209 118.758301 794.554932 107.833618 800.567627 102.130127 C 806.580444 96.426758 816.224976 87.947266 822 83.286987 C 827.775024 78.626709 838.800049 70.624146 846.5 65.503418 C 854.199951 60.382813 865.436279 53.37146 871.469604 49.922607 C 877.502808 46.473877 888.352905 40.842163 895.580811 37.407593 C 902.808716 33.973145 914.826172 28.875854 922.285889 26.0802 C 929.74585 23.284668 941.170898 19.466553 947.674805 17.595581 C 954.178711 15.724609 965.125 13.041992 972 11.634155 C 978.875 10.226318 989.675049 8.495239 996 7.787231 C 1002.324951 7.079224 1015.824951 6.5 1026 6.5 C 1038.133301 6.5 1048.801025 7.099243 1056.99707 8.241333 C 1063.870605 9.199097 1069.629639 10.388916 1069.795166 10.885254 C 1069.960449 11.381592 1070.893311 11.579102 1071.86792 11.324219 C 1072.842529 11.069458 1077.787598 12.054077 1082.856689 13.512451 C 1087.925781 14.970825 1095.855469 17.648804 1100.478271 19.463623 C 1105.10083 21.278442 1112.339111 24.627319 1116.562988 26.90564 C 1120.786865 29.18396 1127.675537 33.39978 1131.871338 36.274048 C 1136.067139 39.148315 1143.5896 45.550049 1148.587891 50.5 C 1153.586182 55.449951 1159.17041 61.710327 1160.997314 64.411743 C 1164.286865 69.276489 1167.173584 74.852661 1168.513672 76.634033 C 1169.285645 77.660278 1171.283691 81.875 1172.953613 86 C 1174.623535 90.125 1177.28418 97.350708 1178.866211 102.057129 C 1180.448486 106.763672 1182.741943 114.863647 1183.963379 120.057129 C 1185.18457 125.250732 1186.822266 133.099976 1187.602539 137.5 C 1188.383057 141.900024 1189.312256 155.175049 1189.667725 167 C 1190.097656 181.304565 1189.899658 192.850708 1189.075684 201.5 C 1188.394775 208.650024 1186.748291 220.453613 1185.416748 227.730225 C 1184.085449 235.006836 1181.218994 247.926025 1179.046875 256.439453 C 1176.874756 264.953003 1172.195801 280.599365 1168.648926 291.209229 C 1165.102051 301.819214 1159.046387 318.599976 1155.19165 328.5 C 1151.337158 338.400024 1142.906982 359.550049 1136.458008 375.5 C 1130.009033 391.449951 1122.088135 411.474976 1118.855713 420 C 1115.623291 428.525024 1111.145264 441.111084 1108.904297 447.968994 C 1106.66333 454.826904 1103.270508 466.522339 1101.364502 473.958618 C 1099.458496 481.39502 1097.07251 493.333984 1096.062012 500.489624 C 1095.051514 507.645386 1094.148193 520.267456 1094.054688 528.538818 C 1093.961182 536.810181 1094.3396 547.835083 1094.895508 553.038818 C 1095.451416 558.242432 1096.605957 567.993408 1097.460693 574.70752 C 1098.315674 581.421753 1100.15918 592.671753 1101.557129 599.70752 C 1102.955078 606.743408 1105.213379 616.901978 1106.575195 622.282227 C 1107.937012 627.662476 1110.866943 637.787476 1113.086426 644.782227 C 1115.305664 651.776978 1119.420898 663.349976 1122.231445 670.5 C 1125.041748 677.650024 1130.547607 689.800049 1134.466309 697.5 C 1138.38501 705.199951 1144.980469 716.675049 1149.122803 723 C 1153.265137 729.324951 1159.511475 738.099976 1163.003174 742.5 C 1166.495117 746.900024 1173.6604 754.780701 1178.926025 760.012695 C 1184.19165 765.24469 1193 773.134338 1198.5 777.545288 C 1204 781.956177 1212.324951 788.263428 1217 791.561401 C 1221.675049 794.859375 1230.225098 800.541382 1236 804.18811 C 1241.774902 807.834778 1252.35376 814.165039 1259.508301 818.25531 C 1266.663086 822.345581 1279.712891 829.515686 1288.508301 834.188904 C 1297.303711 838.862061 1311.25 846.208862 1319.5 850.515137 C 1327.75 854.82135 1342.375 862.586304 1352 867.770569 C 1361.625 872.954834 1374.675049 880.174133 1381 883.813538 C 1387.324951 887.452942 1397.257813 893.421448 1403.072998 897.076904 C 1408.887939 900.732361 1419.012939 907.321594 1425.572998 911.719604 C 1432.132813 916.117615 1443.800049 924.713684 1451.5 930.82196 C 1459.199951 936.930237 1470.899902 946.496338 1477.5 952.079895 C 1484.100098 957.663513 1502.774902 972.170959 1519 984.318604 C 1535.225098 996.466309 1558.399902 1013.931763 1570.5 1023.130859 C 1582.600098 1032.329834 1597.434082 1043.962524 1603.4646 1048.981201 C 1609.494873 1053.999878 1620.668701 1063.819702 1628.294922 1070.802979 C 1635.921143 1077.786377 1646.843506 1088.594482 1652.566895 1094.821045 C 1658.290283 1101.047607 1665.943848 1109.822754 1669.574951 1114.321045 C 1673.205811 1118.81958 1680.171631 1128.494995 1685.054199 1135.822144 C 1689.936768 1143.149414 1697.008789 1155.299316 1700.769775 1162.822144 C 1704.530762 1170.344971 1709.707031 1182.810059 1712.272461 1190.522217 C 1714.837891 1198.234619 1718.188721 1210.834473 1719.718506 1218.522217 C 1722.263916 1231.313721 1722.5 1234.409546 1722.5 1255 C 1722.5 1268.545532 1721.965088 1281.213989 1721.155762 1286.832031 C 1720.416504 1291.9646 1718.259521 1302.048584 1716.362061 1309.240601 C 1714.464844 1316.432739 1710.667725 1327.973511 1707.924072 1334.886719 C 1705.18042 1341.800049 1700.203369 1352.61377 1696.86377 1358.91748 C 1693.524414 1365.221069 1687.868408 1374.905884 1684.294678 1380.439209 C 1680.720947 1385.972656 1675.282471 1393.875 1672.208984 1398 C 1669.135498 1402.125 1663.041992 1409.769287 1658.668213 1414.987305 C 1654.294189 1420.205322 1646.306396 1429.205322 1640.917236 1434.987305 C 1635.528076 1440.769287 1624.229492 1451.865479 1615.809326 1459.645386 C 1607.38916 1467.425415 1595.760254 1477.775391 1589.967529 1482.645386 C 1584.174561 1487.515381 1573.149658 1496.489014 1565.467529 1502.586792 C 1557.7854 1508.68457 1538.675049 1523.352539 1523 1535.182373 C 1507.324951 1547.012207 1488.199951 1560.978149 1480.5 1566.217773 C 1472.800049 1571.457397 1459.75 1579.699707 1451.5 1584.533936 C 1443.25 1589.368042 1429.75 1596.602051 1421.5 1600.609497 C 1413.25 1604.616821 1401.494385 1609.90332 1395.376465 1612.3573 C 1389.258789 1614.811279 1378.763428 1618.674072 1372.053467 1620.941406 C 1365.34375 1623.208618 1353.662109 1626.583984 1346.094482 1628.442139 C 1338.526855 1630.300415 1326.747314 1632.744263 1319.91748 1633.873047 C 1313.087891 1635.001831 1300.524902 1636.44165 1292 1637.07251 C 1283.475098 1637.703491 1271.324951 1637.935791 1265 1637.588623 C 1258.675049 1637.241577 1217.927246 1636.396973 1187 1635 C 1172.621826 1634.350586 1110.649902 1627.434692 1103.5 1626.559814 C 1096.350098 1625.684814 1082.399902 1624.103271 1072.5 1623.045166 C 1062.600098 1621.987061 1047.300049 1620.421387 1038.5 1619.565918 C 1029.699951 1618.710327 1014.399902 1617.347534 1004.5 1616.537354 C 994.600098 1615.727051 979.300049 1614.595215 970.5 1614.021973 C 961.699951 1613.44873 946.399902 1612.534546 936.5 1611.990234 C 926.600098 1611.446045 899.824951 1610.706787 877 1610.347412 C 850.96228 1609.937622 822.832153 1610.139648 801.5 1610.889526 C 782.800049 1611.546997 758.5 1612.740479 747.5 1613.541748 C 736.5 1614.342896 720.300049 1615.697632 711.5 1616.552124 C 702.699951 1617.406494 688.300049 1618.990601 679.5 1620.072144 C 670.699951 1621.153687 656.074951 1623.170166 647 1624.553223 C 637.925049 1625.936279 623.974976 1628.208496 616 1629.602783 C 608.025024 1630.99707 594.75 1633.50647 586.5 1635.179321 C 578.25 1636.852173 564.757446 1640.245972 556.516479 1642.721069 C 548.275513 1645.196167 533.425537 1650.497681 523.516479 1654.502319 C 513.607422 1658.506836 496.599243 1664.597656 482.5 1669.516602 C 468.016968 1674.569458 453.029053 1679.966797 438 1684.23645 C 416.573364 1690.323608 395.015137 1698.227783 373 1702.740723 C 362.085938 1704.978027 348.974976 1707.393677 341 1709.389282 C 333.025024 1711.384888 318.175049 1714.850708 308 1717.091064 C 297.824951 1719.331421 282.300049 1722.736084 273.5 1724.657104 C 264.699951 1726.578125 251.650024 1729.028076 244.5 1730.10144 C 236.585205 1731.289673 224.067749 1732.217285 212.5 1732.472656 Z M 211.5 1613.553711 C 218.497437 1613.925049 232.5 1613.513184 232.5 1613.513184 C 232.5 1613.513184 248.898193 1612.669434 257 1611.428955 C 268.476929 1609.671753 280.657104 1607.47876 292 1605 C 301.991699 1602.816528 311.340698 1599.979004 321 1597.426514 C 334.01001 1593.988647 347.123535 1590.908325 360 1587 C 376.847046 1581.886597 393.355225 1576.716187 410 1570.978271 C 421.181519 1567.123657 432.446289 1562.803467 443.5 1558.285645 C 452.936035 1554.428955 463.800049 1549.200562 471.5 1545.988403 C 479.199951 1542.776367 490.900024 1538.140137 497.5 1535.685669 C 504.099976 1533.231201 516.846069 1529.119873 525.824463 1526.549316 C 534.802979 1523.978882 549.427979 1520.36145 558.324463 1518.51062 C 567.221069 1516.65979 582.150024 1513.767822 591.5 1512.083984 C 600.849976 1510.400146 615.743286 1507.910522 624.596069 1506.55127 C 633.448975 1505.192139 649.648926 1502.953369 660.596069 1501.57605 C 671.543213 1500.198853 687.25 1498.384644 695.5 1497.544556 C 703.75 1496.704346 719.050049 1495.359375 729.5 1494.555786 C 739.949951 1493.752197 760.199951 1492.510864 774.5 1491.797363 C 788.924194 1491.077637 824.096924 1490.5 853.5 1490.5 C 882.662598 1490.5 919.093262 1491.094727 934.5 1491.822266 C 949.899902 1492.549561 971.5 1493.758301 982.5 1494.508545 C 993.5 1495.258545 1009.587402 1496.422607 1018.25 1497.094971 C 1031.459717 1498.120483 1034.002441 1498.574341 1034.015381 1499.908813 C 1034.028076 1501.228027 1034.183105 1501.259277 1034.922363 1500.091309 C 1035.679443 1498.895508 1037.830566 1498.864502 1049.156982 1499.886719 C 1056.495605 1500.549072 1070.600098 1501.988525 1080.5 1503.085693 C 1090.399902 1504.182739 1106.149902 1505.986816 1115.5 1507.094849 C 1124.850098 1508.202881 1180.517334 1515.660034 1213 1517 C 1235.186523 1517.915283 1262.550049 1517.173706 1267.5 1517.520752 C 1272.449951 1517.867798 1281.675049 1517.651978 1288 1517.041138 C 1294.324951 1516.430176 1304.675049 1514.792603 1311 1513.401855 C 1317.324951 1512.011108 1328.416016 1508.886841 1335.646729 1506.458984 C 1342.877197 1504.03125 1354.305664 1499.522583 1361.042969 1496.439819 C 1367.780518 1493.357056 1377.343262 1488.585693 1382.293701 1485.836914 C 1387.244141 1483.088135 1394.715576 1478.714966 1398.897217 1476.118774 C 1403.078857 1473.522461 1410.550049 1468.65686 1415.5 1465.306152 C 1420.449951 1461.955566 1435.074951 1451.220093 1448 1441.449707 C 1460.925049 1431.679199 1478.685059 1418.018555 1487.467041 1411.092651 C 1496.248779 1404.166748 1508.623779 1394.070679 1514.967041 1388.656982 C 1521.310059 1383.243408 1531.420898 1374.243408 1537.435547 1368.656982 C 1543.449951 1363.070679 1552.83374 1353.550049 1558.288574 1347.5 C 1563.743408 1341.449951 1571.241943 1332.449951 1574.952393 1327.5 C 1578.662598 1322.550049 1584.056885 1314.559692 1586.939453 1309.743652 C 1589.822021 1304.927734 1593.692139 1297.277832 1595.539551 1292.743652 C 1597.386963 1288.209717 1599.651855 1281.800049 1600.572266 1278.5 C 1601.555908 1274.973999 1602.447754 1267.088623 1602.735107 1259.376343 C 1603.169922 1247.71167 1602.947266 1245.1521 1600.733398 1236.353271 C 1599.363281 1230.908569 1596.623291 1223.041748 1594.644287 1218.871338 C 1592.665283 1214.70105 1588.414063 1207.286377 1585.19751 1202.394531 C 1581.980713 1197.502441 1576.918213 1190.574951 1573.947266 1187 C 1570.976318 1183.425049 1564.710205 1176.510498 1560.022705 1171.634277 C 1555.335205 1166.758179 1546.550049 1158.412231 1540.5 1153.087891 C 1534.449951 1147.763428 1524.599121 1139.452637 1518.609131 1134.619507 C 1512.619141 1129.786377 1491.694092 1113.875488 1472.109131 1099.262207 C 1452.52417 1084.648926 1429.975098 1067.616699 1422 1061.413086 C 1414.024902 1055.209473 1403.449951 1046.718994 1398.5 1042.545166 C 1393.550049 1038.371582 1385.417725 1031.630127 1380.428467 1027.564331 C 1375.439209 1023.498596 1366.036621 1016.486084 1359.533691 1011.981079 C 1353.031006 1007.476074 1340.013184 999.199951 1330.605225 993.589783 C 1321.197266 987.979553 1306.300049 979.523926 1297.5 974.799438 C 1288.699951 970.074951 1270.25 960.28302 1256.5 953.039612 C 1242.75 945.796204 1225.199951 936.456299 1217.5 932.284241 C 1209.800049 928.112244 1197.506592 921.166321 1190.181152 916.848938 C 1182.855713 912.531494 1169.805664 904.32959 1161.181152 898.622375 C 1152.556396 892.915161 1141 884.868225 1135.5 880.740234 C 1130 876.612183 1120.403564 868.794434 1114.174316 863.367371 C 1107.945313 857.940308 1101.623779 852.59375 1100.126709 851.486084 C 1098.629639 850.378418 1094.05127 845.748596 1089.952393 841.197632 C 1085.853516 836.646606 1078.836914 828.64032 1074.359619 823.405884 C 1069.882568 818.171387 1062.496338 808.703064 1057.946045 802.365112 C 1053.395752 796.0271 1046.103271 784.914673 1041.740479 777.670776 C 1037.377686 770.426819 1030.71582 758.347534 1026.936523 750.827881 C 1023.156982 743.308228 1017.338135 730.755127 1014.005859 722.932129 C 1010.673584 715.109131 1005.035645 700.111572 1001.477051 689.604248 C 997.918701 679.096924 993.188477 663.525024 990.96582 655 C 988.74292 646.474976 986.048584 635 984.978271 629.5 C 983.907959 624 982.110596 614.099976 980.983887 607.5 C 979.857422 600.900024 979.312256 590.775024 978.550049 585 C 977.788086 579.224976 978.653564 567.974976 978.029297 560 C 977.353516 551.369629 979.118896 520.775024 979.491699 515 C 979.864502 509.224976 979.82666 499.099976 980.629883 492.5 C 981.433105 485.900024 981.406006 473.974976 983.01416 466 C 984.622559 458.025024 985.733887 444.974976 987.928711 437 C 990.123535 429.025024 993.791016 413.949951 997.300781 403.5 C 1000.810547 393.050049 1013.283203 360.425049 1025.017822 331 C 1036.752441 301.574951 1048.7854 270.525024 1051.757568 262 C 1054.729492 253.474976 1058.713379 241.130127 1060.610352 234.567017 C 1062.507324 228.003906 1065.197021 217.203979 1066.587402 210.567017 C 1068.483398 201.517578 1069.260742 194.105347 1069.696045 180.926392 C 1070.207764 165.436768 1070.021484 162.085205 1068.125488 152.664551 C 1066.942383 146.786133 1065.269287 140.214478 1064.407715 138.061035 C 1063.195557 135.031372 1061.806152 133.659058 1058.265869 131.994995 C 1055.749512 130.812134 1050.722656 129.098267 1047.095215 128.186401 C 1042.481934 127.026611 1036.142822 126.52417 1026 126.51416 C 1016.874023 126.505249 1007.793945 127.130249 1001.5 128.200562 C 996 129.135742 986.774902 131.267944 981 132.938477 C 975.225098 134.609131 966.675049 137.486572 962 139.332764 C 957.324951 141.179077 949.032959 144.867798 943.572998 147.530029 C 938.113281 150.192261 928.953857 155.21582 923.21875 158.693604 C 917.483643 162.171265 908.450684 168.272949 903.14563 172.25293 C 897.840576 176.23291 888.18811 184.640015 881.695801 190.935303 C 875.203491 197.230591 865.675049 207.35791 860.521484 213.440552 C 855.36792 219.523315 838.932739 239.800049 823.998779 258.5 C 809.064941 277.199951 790.864624 299.474976 783.553711 308 C 776.242798 316.525024 760.847778 330.191772 751.786987 339.592773 C 740.651978 351.146118 717.749512 374.287354 702.412964 389.291748 C 684.116211 407.192261 670.559692 423.139771 655.136108 438.099976 C 644.13562 448.77002 618.567261 473.927002 598.317627 494.004395 C 578.067871 514.081787 549.125 541.934326 534 555.898804 C 518.875 569.863281 496.859497 590.336304 485.076782 601.394409 C 473.294067 612.452515 457.352905 628.25 449.6521 636.5 C 441.951172 644.75 431.298706 656.717285 425.979858 663.093994 C 420.661011 669.470825 412.941284 679.145752 408.824707 684.593994 C 404.708252 690.042358 397.487549 700.125 392.778809 707 C 388.070068 713.875 380.605835 725.39978 376.191406 732.610596 C 371.7771 739.821411 364.781982 751.971436 360.646729 759.610596 C 356.511353 767.249756 349.566772 781.375 345.214111 791 C 340.86145 800.625 334.036133 816.811401 330.046875 826.969727 C 326.057495 837.128052 318.805054 857.378052 313.930298 871.969727 C 309.055542 886.561401 300.585938 913.799988 295.108887 932.5 C 289.631836 951.200012 280.595581 982.474976 275.028198 1002 C 269.460815 1021.525024 262.166626 1046.5 258.818726 1057.5 C 255.470947 1068.5 250.129761 1085.375 246.949463 1095 C 243.769165 1104.625 238.487549 1119.925049 235.212402 1129 C 231.937378 1138.074951 225.647461 1154.5 221.234863 1165.5 C 216.822266 1176.5 208.397217 1196.75 202.512573 1210.5 C 196.627808 1224.25 187.065063 1246.75 181.261841 1260.5 C 175.45874 1274.25 168.01123 1292.474976 164.711914 1301 C 161.412598 1309.525024 156.271729 1323.474976 153.287598 1332 C 150.303589 1340.525024 145.876953 1354.352661 143.450684 1362.728149 C 141.024292 1371.10376 137.485229 1385.503662 135.585938 1394.728149 C 133.686646 1403.952637 131.322998 1418.025024 130.333618 1426 C 129.215698 1435.01001 128.527954 1447.315186 128.517212 1458.5 C 128.507813 1468.400024 129.096069 1481.819824 129.824585 1488.321655 C 130.553101 1494.823608 132.432007 1506.378784 134 1513.999878 C 135.567871 1521.620972 138.854492 1533.851196 141.303345 1541.178223 C 143.752197 1548.505127 147.796997 1558.775024 150.291748 1564 C 152.786499 1569.224976 157.069092 1576.928833 159.808594 1581.119629 C 162.548096 1585.310425 167.797241 1591.927734 171.473389 1595.824585 C 175.149536 1599.721558 180.560547 1604.505127 183.497803 1606.454834 C 186.435181 1608.404419 191.237183 1610.677612 194.169189 1611.506104 C 198.094849 1612.615601 205.720703 1613.246948 211.5 1613.553711 Z"/>
        <linearGradient id="linearGradient2" x1="1021.265539" y1="695.750222" x2="519.471406" y2="1304.997949" gradientUnits="userSpaceOnUse">
            <stop offset="0" stop-color="#ffb000" stop-opacity="1"/>
            <stop offset="1" stop-color="#b75900" stop-opacity="1"/>
        </linearGradient>
        <filter id="filter2" x="0" y="0" width="1731" height="1743" filterUnits="userSpaceOnUse" primitiveUnits="userSpaceOnUse" color-interpolation-filters="sRGB">
            <feGaussianBlur stdDeviation="5"/>
            <feOffset dx="-0" dy="2" result="offsetblur"/>
            <feFlood flood-color="#000000" flood-opacity="0.5"/>
            <feComposite in2="offsetblur" operator="in"/>
            <feMerge>
                <feMergeNode/>
                <feMergeNode in="SourceGraphic"/>
            </feMerge>
        </filter>
        <path id="path1" fill="url(#linearGradient2)" fill-rule="evenodd" stroke="none" filter="url(#filter2)" d="M 550.5 1475.240234 C 545 1475.469849 538.025024 1475.498779 535 1475.304565 C 531.974976 1475.110352 521 1474 521 1474 C 521 1474 509.805786 1471.925537 504.956909 1471.153442 C 499.482056 1470.281494 492.924438 1468.641357 488.554321 1466.621582 C 484.184326 1464.601807 476.984253 1460.860107 472.554321 1458.306641 C 468.124512 1455.753174 461.125 1451.172119 457 1448.126587 C 452.875 1445.081055 446.349976 1439.651367 442.5 1436.060791 C 438.650024 1432.470215 432.90271 1426.600098 429.728394 1423.016113 C 426.553955 1419.432251 421.767578 1413.349976 419.092041 1409.5 C 416.416504 1405.650024 411.974121 1398 409.220337 1392.5 C 406.466431 1387 403.036377 1378.751953 401.5979 1374.170898 C 400.159546 1369.589966 398.311523 1361.99353 397.491333 1357.289917 C 396.621338 1352.301392 396 1342.563721 396 1333.9198 C 396 1323.168823 396.555054 1316.225464 398.022095 1308.623291 C 399.134277 1302.860352 401.64978 1293.274902 403.612183 1287.32251 C 405.574585 1281.370117 409.750854 1270.850098 412.8927 1263.94458 C 416.034546 1257.039063 424.149292 1241.289063 430.925537 1228.94458 C 437.701782 1216.600098 445.025635 1202.462891 447.200684 1197.528564 C 449.375854 1192.594238 451.856079 1185.45459 452.712402 1181.662476 C 454.0271 1175.840698 454.092896 1173.0354 453.134888 1163.633911 C 452.510864 1157.510254 450.449829 1145.074951 448.55481 1136 C 446.65979 1126.925049 443.258789 1111.400024 440.996826 1101.5 C 438.734985 1091.599976 435.807251 1077.180664 434.490723 1069.457153 C 433.174194 1061.733643 431.567261 1048.339233 430.919556 1039.691895 C 430.034424 1027.875 430.021606 1021.023682 430.86792 1012.109741 C 431.487183 1005.586853 432.872925 995.977905 433.947266 990.756592 C 435.021484 985.535278 437.761353 975.691528 440.035767 968.881653 C 442.310059 962.071777 446.788696 951.266663 449.988159 944.870239 C 453.187622 938.473816 458.661743 928.657593 462.15271 923.056335 C 465.643677 917.455078 472.794067 907.163513 478.042358 900.186157 C 483.290649 893.208801 493.108521 880.525085 499.859863 872.000061 C 506.611206 863.475037 515.289917 851.810791 519.145874 846.079468 C 523.001831 840.348083 529.011841 829.96106 532.501465 822.997131 C 535.991089 816.033203 541.076538 804.972473 543.80249 798.417725 C 546.52832 791.863037 551.9104 777.950073 555.762573 767.500061 C 559.614746 757.05011 565.478271 741.074951 568.792603 732 C 572.106934 722.925049 578.401855 706.275024 582.781494 695 C 587.161011 683.724976 594.452271 664.599976 598.984253 652.5 C 603.516235 640.400024 610.95874 620.375 615.523193 608 C 620.087769 595.625 628.617188 573.125 634.477539 558 C 640.337891 542.875 648.755737 521.994507 653.183838 511.598999 C 657.611938 501.203369 665.042358 484.553345 669.695923 474.598999 C 674.349487 464.644531 692.752808 434.77478 706 416 C 712.150146 407.283447 719.104004 399.155762 725.980469 391 C 731.708008 384.206909 737.548096 377.497681 743.691528 371.078247 C 748.925415 365.609375 754.338501 360.300903 759.984863 355.259033 C 764.292236 351.412842 768.749268 347.723511 773.377075 344.269531 C 781.414429 338.270874 789.292725 331.829956 798.29126 327.401733 C 803.366821 324.903931 822.255981 319.196411 834.717896 317.384521 C 841.609619 316.382446 849.403564 316.179932 855.605957 316.95813 C 861.047729 317.640747 869.099976 319.320801 873.5 320.691284 C 877.900024 322.06189 885.213013 325.190918 889.751221 327.644653 C 894.289429 330.098511 901.264404 334.72876 905.251221 337.934204 C 909.238037 341.139771 914.801514 346.178345 917.614502 349.131226 C 920.42749 352.083984 924.92749 357.425659 927.614502 361.001465 C 930.301514 364.577271 934.393311 369.652222 936.707275 373.501465 C 939.021484 377.350586 943.139404 385.224976 945.858643 391 C 948.577881 396.775024 952.447998 406.224976 954.458984 412 C 956.469971 417.775024 957.363525 426.795898 958.109131 434.286743 C 958.968018 442.916382 958.740234 451.619873 959.046875 460.286743 C 959.369141 469.394287 960.064453 478.496948 959.995361 487.609863 C 959.919434 497.62207 959.152588 507.618896 958.497559 517.609863 C 957.712402 529.586914 956.50415 541.532593 955.582764 553.5 C 954.539307 567.054565 953.80127 580.665161 952.623047 594.176392 C 951.612549 605.763672 950.130127 617.149536 949.39502 628.676392 C 948.719482 639.268921 948.130371 649.887451 948.30957 660.5 C 948.529785 673.528198 949.829834 687.400024 950.960938 699.5 C 952.092285 711.599976 954.154297 729.599976 955.543213 739.5 C 956.932129 749.400085 959.189941 762.000061 960.560547 767.500061 C 961.931152 773.000061 964.79126 781.100037 966.916504 785.500061 C 969.041748 789.900085 973.426758 797.325073 976.661133 802.000061 C 979.895264 806.675049 987.448486 817.025085 993.446045 825.000061 C 999.443604 832.975037 1008.172852 844.225037 1012.844482 850.000061 C 1017.516113 855.775085 1027.085205 866.834351 1034.109131 874.576233 C 1041.132813 882.318115 1053.363281 894.93988 1061.287842 902.624634 C 1069.212646 910.309326 1082.177246 922.450195 1090.098145 929.604309 C 1098.019287 936.758423 1112.600098 949.561646 1122.500244 958.055908 C 1132.400391 966.550171 1149.050537 980.693787 1159.500244 989.486267 C 1169.950195 998.278687 1185.25 1011.278137 1193.5 1018.373901 C 1201.75 1025.469727 1215.024902 1037.127075 1223 1044.279297 C 1230.975098 1051.431641 1249.429199 1069.25708 1264.009521 1083.891724 C 1278.589844 1098.526245 1295.728027 1116.574951 1302.094238 1124 C 1308.460693 1131.425049 1321.268311 1147.175049 1330.555908 1159 C 1339.843262 1170.824951 1351.306396 1185.675049 1356.029297 1192 C 1360.751953 1198.324951 1367.157471 1207.550049 1370.263916 1212.5 C 1373.370117 1217.449951 1378.158447 1226.224976 1380.904541 1232 C 1383.650879 1237.775024 1387.260254 1246.775024 1388.925537 1252 C 1390.59082 1257.224976 1392.637207 1265.775024 1393.472656 1271 C 1394.30835 1276.224976 1394.993652 1285.287842 1394.996094 1291.139526 C 1394.998291 1296.991211 1394.302979 1305.54126 1393.451172 1310.139526 C 1392.599365 1314.737793 1390.510254 1322.92041 1388.808594 1328.32312 C 1387.106689 1333.72583 1383.717041 1342.050781 1381.276123 1346.82312 C 1378.834961 1351.595459 1375.188721 1357.974976 1373.173584 1361 C 1371.158203 1364.025024 1366.970703 1369.650024 1363.86792 1373.5 C 1360.765137 1377.349976 1354.463135 1384.194702 1349.863281 1388.710449 C 1345.263428 1393.226318 1338.350098 1399.432983 1334.5 1402.503174 C 1330.649902 1405.573242 1323.675049 1410.694336 1319 1413.883301 C 1314.324951 1417.072144 1306 1422.208618 1300.5 1425.297729 C 1295 1428.386719 1285.169434 1433.445068 1278.654541 1436.53833 C 1272.139404 1439.631592 1261.564453 1443.879028 1255.154541 1445.976929 C 1248.744629 1448.074951 1239.449951 1450.553345 1234.5 1451.484619 C 1228.594238 1452.595703 1217.882813 1453.355957 1203.34375 1453.695923 C 1185.920654 1454.103271 1175.559814 1453.756592 1154.84375 1452.072632 C 1140.354736 1450.894897 1122.875 1449.246094 1116 1448.408447 C 1109.125 1447.571045 1094.725098 1445.133545 1084 1442.992065 C 1073.274902 1440.850464 1055.725098 1437.024414 1045 1434.489746 C 1034.274902 1431.955078 1018.92749 1428.575317 1010.894287 1426.979248 C 1002.861328 1425.383301 991.38623 1423.535034 985.394287 1422.871948 C 978.371826 1422.094971 968.458252 1421.896484 957.5 1422.313477 C 945.633057 1422.765137 935.517822 1423.84082 924 1425.876221 C 914.925049 1427.47998 844.574951 1436.369507 819 1440.516846 C 793.425049 1444.664307 763.5 1446.40271 752.5 1448.046753 C 741.5 1449.690796 721.964355 1452.703613 709 1453.945923 C 696.151733 1455.177002 677.400024 1458.47583 667.5 1459.440918 C 657.608521 1460.405029 640.011719 1463.248535 628.5 1464.485107 C 613.178101 1466.130981 575.224976 1472.638428 570 1473.413574 C 564.775024 1474.188599 556 1475.01062 550.5 1475.240234 Z M 548.5 1360.618774 C 559.595093 1361.346802 591.607544 1360.24353 602 1359 C 642.450684 1354.15979 680 1348 680 1348 C 680 1348 731.925049 1339.821777 741 1338.473877 C 750.074951 1337.126221 775.275024 1332.069092 797 1328.45813 C 818.724976 1324.847168 848.11377 1318.665283 862.30835 1315.942627 C 876.50293 1313.219971 894.553833 1309.884399 902.421509 1308.530273 C 910.289063 1307.176147 923.425537 1304.355957 931.613281 1303.485474 C 939.915283 1302.602783 954.948975 1301.912354 965.601318 1301.924438 C 976.196045 1301.936523 990.669678 1302.632813 998.101318 1303.488037 C 1005.470703 1304.336182 1017.672119 1306.154663 1025.215576 1307.529053 C 1032.759277 1308.903564 1046.03418 1311.616943 1054.715576 1313.558716 C 1063.396973 1315.50061 1078.375 1318.903442 1088 1321.120605 C 1097.625 1323.337891 1112.024902 1326.226929 1120 1327.540894 C 1127.975098 1328.854736 1145.80542 1330.845581 1159.623047 1331.964844 C 1173.440918 1333.084229 1189.916992 1334 1196.236572 1334 C 1202.556396 1334 1210.150879 1333.563965 1213.113525 1333.030884 C 1216.220459 1332.471924 1224.445313 1329.093872 1232.547852 1325.049072 C 1240.274414 1321.192139 1250.174316 1315.407959 1254.547852 1312.19519 C 1258.921631 1308.982422 1265.084473 1303.551758 1268.243408 1300.126953 C 1271.402344 1296.702148 1274.251465 1292.84668 1274.574463 1291.559326 C 1274.941895 1290.095337 1274.21167 1287.21106 1272.624756 1283.859253 C 1271.229248 1280.911621 1267.255371 1274.405273 1263.793701 1269.400635 C 1260.332275 1264.395996 1250.307373 1251.12085 1241.516113 1239.900635 C 1232.725098 1228.680176 1221.025146 1214.104492 1215.516113 1207.509766 C 1210.007324 1200.915283 1195.600098 1185.436157 1183.5 1173.111816 C 1171.399902 1160.787598 1154.969727 1144.808105 1146.988281 1137.602051 C 1139.006592 1130.395996 1124.381592 1117.509033 1114.488281 1108.9646 C 1104.594727 1100.420166 1088.949951 1084.245728 1078.5 1075.46582 C 1068.050049 1066.686035 1051.6521 1052.751953 1042.060303 1044.501221 C 1032.468262 1036.250488 1017.618408 1023.15979 1009.060303 1015.410645 C 1000.502197 1007.661499 986.793213 994.836487 978.596191 986.910645 C 970.39917 978.984802 957.088379 966.300049 949.016846 957.500061 C 940.945068 948.700073 928.606201 936.840088 922.819092 929.922363 C 917.031982 923.004578 905.367676 908.15741 896.898438 896.928589 C 888.429321 885.699768 878.261108 871.643066 874.302368 865.691467 C 870.343628 859.739807 864.585693 849.945557 861.506836 843.926392 C 858.427856 837.907288 854.097412 828.412842 851.883545 822.827637 C 849.669556 817.242493 846.337158 806.738037 844.478027 799.484375 C 842.618896 792.230713 840.198853 780.941833 839.100098 774.39801 C 838.001221 767.854065 836.405029 757.100037 835.552979 750.500061 C 834.700928 743.900024 833.118042 729.275024 832.035645 718 C 830.953247 706.724976 829.533203 689.625 828.879883 680 C 828.171509 669.561768 827.935669 654.227661 828.295654 642 C 828.627441 630.724976 829.808838 614.75 830.920898 606.5 C 832.032959 598.25 834.574341 582.5 836.568604 571.5 C 838.562744 560.5 841.283569 545.199951 842.614868 537.5 C 843.946167 529.800049 845.753784 517.425049 846.631836 510 C 847.681519 501.123169 848.049194 492.390503 847.705444 484.5 C 847.377441 476.971924 846.36377 469.332397 844.985107 464 C 843.776489 459.324951 841.423462 452.125 839.756226 448 C 838.088867 443.875 836.112183 439.841553 835.363281 439.036621 C 834.183838 437.768921 833.32019 438.236816 828.901855 442.536621 C 826.096802 445.266479 821.475464 450.650024 818.63208 454.5 C 815.788696 458.349976 811.599976 464.425049 809.323608 468 C 807.047363 471.574951 802.872437 478.550049 800.045898 483.5 C 797.21936 488.449951 791.147339 499.925049 786.55249 509 C 781.957642 518.074951 775.295044 532.025024 771.746582 540 C 768.198242 547.974976 762.121582 562.375 758.243042 572 C 754.364624 581.625 747.285522 599.625 742.511841 612 C 737.738159 624.375 729.856079 645.316162 724.995972 658.535889 C 720.135864 671.755737 712.30542 692.763428 707.594971 705.219849 C 702.884521 717.67627 695.613403 736.560181 691.43689 747.184021 C 687.260376 757.8078 680.998901 774.375061 677.522583 784.000061 C 674.046265 793.625061 668.424927 808.913635 665.03064 817.974609 C 661.636353 827.035645 656.110474 840.965576 652.750977 848.929993 C 649.391357 856.89447 643.20874 870.180908 639.011719 878.455444 C 634.814697 886.72998 628.49231 898.119141 624.962036 903.764771 C 621.431763 909.410339 614.448364 919.593384 609.443237 926.393738 C 604.438232 933.194092 595.215454 945.224976 588.948242 953.129028 C 582.68103 961.033081 574.025146 972.417175 569.712891 978.427063 C 565.400513 984.436951 559.900513 993.436951 557.490479 998.427063 C 554.840454 1003.91394 552.450806 1010.798767 551.444214 1015.846008 C 550.010742 1023.034424 549.940918 1025.739014 550.940796 1035.345947 C 551.579224 1041.480713 553.399902 1052.800049 554.986694 1060.5 C 556.573486 1068.199951 559.908569 1083.5 562.397827 1094.5 C 564.887085 1105.5 568.053711 1120.944214 569.434814 1128.820435 C 570.815918 1136.696777 572.454224 1149.071777 573.075562 1156.320435 C 573.725342 1163.901367 573.915894 1174.597656 573.523926 1181.5 C 573.14917 1188.099976 571.798828 1198.481201 570.523071 1204.569336 C 569.247192 1210.657471 566.601196 1220.427002 564.642944 1226.279297 C 562.68457 1232.131592 558.645142 1242.310791 555.66626 1248.89978 C 552.6875 1255.48877 546.976074 1266.867188 542.974243 1274.185059 C 538.972412 1281.50293 532.514893 1293.567505 528.624268 1300.995117 C 524.733521 1308.422852 520.301392 1318.020142 518.775146 1322.32251 C 517.248779 1326.624878 516 1332.075439 516 1334.434937 C 516 1337.672485 516.718262 1339.628784 518.92749 1342.408813 C 520.537598 1344.434814 524.025146 1347.812256 526.67749 1349.914063 C 529.329834 1352.015869 533.75 1354.927979 536.5 1356.385376 C 540.866821 1358.699585 542.388672 1360.217773 548.5 1360.618774 Z"/>
        <linearGradient id="linearGradient3" x1="928.102271" y1="1043.592052" x2="745.099291" y2="1220.90352" gradientUnits="userSpaceOnUse">
            <stop offset="0" stop-color="#ffb000" stop-opacity="1"/>
            <stop offset="1" stop-color="#b75900" stop-opacity="1"/>
        </linearGradient>
        <filter id="filter3" x="0" y="0" width="1731" height="1743" filterUnits="userSpaceOnUse" primitiveUnits="userSpaceOnUse" color-interpolation-filters="sRGB">
            <feGaussianBlur stdDeviation="5"/>
            <feOffset dx="-0" dy="2" result="offsetblur"/>
            <feFlood flood-color="#000000" flood-opacity="0.5"/>
            <feComposite in2="offsetblur" operator="in"/>
            <feMerge>
                <feMergeNode/>
                <feMergeNode in="SourceGraphic"/>
            </feMerge>
        </filter>
        <path id="path2" fill="url(#linearGradient3)" fill-rule="evenodd" stroke="none" filter="url(#filter3)" d="M 952.5 1270.390015 C 947 1270.651855 939.203125 1270.454834 935.173584 1269.952393 C 931.144287 1269.449951 924.169189 1268.159424 919.673584 1267.084961 C 915.178223 1266.010254 908.350098 1264.047363 904.5 1262.723022 C 900.649902 1261.398682 888.820313 1256.848633 878.211914 1252.611816 C 859.754639 1245.240234 858.44104 1244.870361 847.711914 1244.020386 C 841.54541 1243.53186 831.099976 1242.842041 824.5 1242.487305 C 817.900024 1242.132568 808.449951 1241.02124 803.5 1240.017822 C 798.550049 1239.014404 790.67041 1236.796387 785.989746 1235.088867 C 781.309082 1233.381348 773.726929 1229.752441 769.140625 1227.024658 C 764.554321 1224.296753 757.69751 1219.525024 753.903198 1216.420898 C 750.108887 1213.31665 744.836304 1208.239502 742.186401 1205.138428 C 739.536377 1202.037354 735.971558 1197.474976 734.264404 1195 C 732.557373 1192.525024 729.568481 1187.286621 727.622681 1183.359009 C 725.676758 1179.431396 723.151978 1172.681396 722.012207 1168.359009 C 720.872437 1164.036621 719.684692 1156.449951 719.372925 1151.5 C 718.990479 1145.429565 719.335083 1139.244873 720.431274 1132.5 C 721.325195 1127 722.592529 1120.089111 723.247803 1117.142578 C 724.388184 1112.013672 724.277344 1111.331543 720.649536 1101.142578 C 718.56543 1095.289185 714.615356 1083.974976 711.871826 1076 C 709.128296 1068.025024 705.536621 1056.099976 703.890381 1049.5 C 701.661011 1040.562378 700.74292 1034.081299 700.292725 1024.104004 C 699.813721 1013.489868 700.060303 1008.713684 701.479858 1001.104004 C 702.46521 995.821838 704.643555 988.349976 706.320679 984.5 C 707.997803 980.650024 711.234619 974.575012 713.513672 971 C 715.792725 967.424988 721.258667 961.125 725.660156 957 C 731.049683 951.948914 736.574829 947.970581 742.581421 944.81604 C 747.486572 942.239929 755.377075 939.009521 760.115723 937.63739 C 764.85437 936.26532 774.304321 934.602417 781.115723 933.9422 C 788.382568 933.237793 798.04541 933.013977 804.5 933.400635 C 810.550049 933.763062 820.449951 934.768677 826.5 935.635315 C 832.550049 936.501953 843.349976 938.698608 850.5 940.516785 C 857.650024 942.334961 868.732056 945.60553 875.126953 947.784729 C 881.521729 949.963928 892.996826 954.503906 900.626953 957.873596 C 908.25708 961.243286 918.899902 967.970337 925.5 971.600281 C 932.100098 975.230286 940.425049 982.411194 946.44458 986.335693 C 952.464355 990.260132 978.550049 1011.716553 983.5 1015.889038 C 988.449951 1020.061584 996.933838 1027.755981 1002.353027 1032.987793 C 1007.772217 1038.219482 1015.262695 1046.099976 1018.998291 1050.5 C 1022.733887 1054.900024 1028.719971 1061.882324 1032.300537 1067.238525 C 1035.881348 1072.594849 1051.795898 1099.610596 1053.596436 1105.269531 C 1058.395264 1120.350586 1063.43335 1139.804199 1063.954346 1146.286987 C 1064.544922 1153.633057 1064.549805 1161.168335 1063.967773 1166.286987 C 1063.454102 1170.804199 1062.116943 1177.999634 1060.996094 1182.276855 C 1059.875244 1186.554199 1057.230225 1193.794556 1055.11792 1198.366455 C 1053.005615 1202.938477 1049.005615 1210.045898 1046.229004 1214.160645 C 1043.452393 1218.275391 1037.706787 1225.334717 1033.460938 1229.848022 C 1029.215332 1234.361328 1021.637207 1241.128662 1016.62085 1244.886841 C 1011.604248 1248.64502 1004.350098 1253.483643 1000.5 1255.639526 C 996.649902 1257.79541 990.188721 1261.028564 986.141846 1262.824219 C 982.094727 1264.619751 975.119873 1266.949585 970.641846 1268.001465 C 966.163818 1269.053467 958 1270.128174 952.5 1270.390015 Z M 938.094971 1146.947876 C 938.422363 1146.976563 939.499268 1146.105713 940.488525 1145.012695 C 942.229736 1143.088623 942.184326 1142.816895 939.066162 1136.48291 C 936.932129 1132.148193 932.920898 1126.86731 927.178711 1120.833252 C 922.411865 1115.824219 914.234131 1108.141846 909.005859 1103.76123 C 903.777588 1099.380615 895.738525 1093.111084 891.141113 1089.828857 C 886.543701 1086.546753 878.893799 1081.620239 874.141113 1078.881104 C 869.38855 1076.141968 862.125 1072.287109 858 1070.314819 C 853.875 1068.342529 847.727051 1065.683472 844.337891 1064.406006 C 838.938232 1062.37085 838.023315 1062.26709 836.94397 1063.567627 C 835.950073 1064.765137 836.336914 1067.220215 838.946533 1076.275879 C 840.725464 1082.449219 842.814575 1091.099976 843.589111 1095.5 C 844.363525 1099.900024 844.997925 1107.859863 844.998657 1113.188721 C 845 1122.877441 845 1122.877441 849.25 1123.421753 C 851.587524 1123.721191 857.099976 1124.243652 861.5 1124.583008 C 865.900024 1124.922363 874.018311 1126.053223 879.540771 1127.095703 C 885.063232 1128.138428 894.063232 1130.51416 899.540771 1132.375488 C 905.018311 1134.236572 913.100098 1137.232666 917.5 1139.033203 C 921.899902 1140.83374 928.199951 1143.339355 931.5 1144.601318 C 934.800049 1145.863281 937.767822 1146.919189 938.094971 1146.947876 Z"/>
    </g>
</svg>
