<?xml version="1.0" encoding="UTF-8"?>
<!-- Generated by Pixelmator Pro 3.8 -->
<svg width="272" height="272" viewBox="0 0 272 272" xmlns="http://www.w3.org/2000/svg">
    <path id="Download-Data" fill="#ffffff" fill-opacity="0.85" stroke="none" d="M 272 135.999878 C 272 210.928619 211.178619 271.75 136.249878 271.75 C 61.321239 271.75 0.5 210.928619 0.5 135.999878 C 0.5 61.071259 61.321239 0.25 136.249878 0.25 C 211.178619 0.25 272 61.071259 272 135.999878 Z M 23.125023 135.999878 C 23.125023 198.551483 73.698387 249.124435 136.249878 249.124435 C 198.801483 249.124435 249.374435 198.551483 249.374435 135.999878 C 249.374435 73.448395 198.801483 22.875015 136.249878 22.875015 C 73.698387 22.875015 23.125023 73.448395 23.125023 135.999878 Z M 143.968338 199.615845 C 141.306747 202.277435 138.910919 203.07605 136.249878 203.07605 C 133.587997 203.07605 131.192429 202.277435 128.530701 199.615845 L 84.611725 157.293411 C 82.615326 155.298248 81.55069 153.168167 81.55069 150.240814 C 81.55069 144.784073 85.543221 140.924561 91.132965 140.924561 C 93.661682 140.924561 96.589561 141.988937 98.45282 144.117645 L 118.682266 165.678848 L 126.402344 173.866898 L 125.735832 153.966766 L 125.735832 79.171265 C 125.735832 73.581543 130.5271 68.923401 136.249878 68.923401 C 141.973175 68.923401 146.897049 73.581543 146.897049 79.171265 L 146.897049 153.966766 L 146.137177 173.824707 L 153.817459 165.678848 L 174.04718 144.117645 C 175.910156 141.988937 178.705307 140.924561 181.233337 140.924561 C 186.823639 140.924561 190.948898 144.784073 190.948898 150.240814 C 190.948898 153.168167 189.884537 155.298248 187.75444 157.293411 L 143.968338 199.615845 Z"/>
</svg>
